<?xml version="1.0" standalone="no"?>
<!DOCTYPE svg PUBLIC "-//W3C//DTD SVG 1.1//EN" "http://www.w3.org/Graphics/SVG/1.1/DTD/svg11.dtd" >
<svg xmlns="http://www.w3.org/2000/svg">
<metadata></metadata>
<defs>
<font id="kg_sweet_n_sassyregular" horiz-adv-x="856" >
<font-face units-per-em="2048" ascent="1638" descent="-410" />
<missing-glyph horiz-adv-x="678" />
<glyph horiz-adv-x="0" />
<glyph unicode="&#xd;" horiz-adv-x="1000" />
<glyph unicode=" "  horiz-adv-x="678" />
<glyph unicode="&#x09;" horiz-adv-x="678" />
<glyph unicode="&#xa0;" horiz-adv-x="678" />
<glyph unicode="!" horiz-adv-x="420" d="M108 188q20 28 61 41t83 7t73 -32t31 -76q-10 -70 -57 -97t-96 -16t-82 56t-13 117zM108 1900q2 32 27 46t53 11t50 -20t20 -45q12 -82 17 -190t7 -228t3 -247t2 -247t5 -227t12 -189q-10 -32 -37 -45t-57 -11t-55 17t-31 39q2 130 0 308t-6 366t-7 363t-3 299z" />
<glyph unicode="&#x22;" horiz-adv-x="678" d="M108 1668v8q0 30 18 41t42 11t49 -9t41 -21q16 -90 23 -187t7 -233q-66 -16 -97 -9t-45 50t-20 127t-18 222zM384 1666v8q0 30 18 41t42 11t49 -9t41 -21q16 -90 23 -187t7 -233q-66 -16 -97 -9t-45 50t-20 127t-18 222z" />
<glyph unicode="#" horiz-adv-x="1984" d="M167 1195q11 29 75 55l420 14q8 74 2 149t-17 148t-21 147t-10 150q0 26 25 40t55 15t56 -11t30 -38l60 -600q28 -4 78 -7t106 -5t111 -2t93 4v610q26 38 59 44t61 -11t43 -51t3 -72q2 -58 4 -148t6 -175t9 -148t11 -69q32 2 97 5t131 -3t115 -28t49 -70t-31 -66t-77 -18 q-76 0 -150 6t-150 6v-310q42 -6 98 -12t118 -12t123 -8t111 2q26 -10 38 -36t11 -54t-17 -51t-48 -25q-102 0 -203 3t-215 7v-474q14 -22 -12 -38t-60 -20t-63 8t-23 46q0 20 -2 63t-4 97t-5 111t-5 104t-4 78l-2 31l-16 14q-36 -2 -74 0t-80 6t-92 7t-112 3q4 -118 7 -240 t7 -278q0 -38 -17 -60t-42 -26t-53 8t-52 40q0 144 1 279t-17 277q-24 8 -68 10t-94 3t-101 3t-93 12t-68 30t-26 54q0 26 23 40t52 20t56 7t35 1q14 0 52 -1t80 -2t79 -2t53 -1q0 24 3 64t5 85t-2 91t-16 80l-420 4q-14 -6 -42 6t-43 34t-4 51zM868 1018q2 -48 5 -95t4 -85 t-5 -52q24 -16 73 -24t103 -10t104 3t78 15q-4 14 -3 50t2 82t2 94t-1 88q-4 0 -47 4t-101 7t-117 5t-93 0q-6 -34 -4 -82z" />
<glyph unicode="$" horiz-adv-x="1112" d="M88 636q0 14 14 28t32 25t35 17t23 6q12 -10 22 -38t24 -67t33 -85t50 -87t76 -76t109 -51l-10 954q-42 16 -86 31t-80 38t-61 58t-29 91q0 50 23 95t57 86t73 76t73 65v224q36 38 62 44t43 -5t28 -32t17 -37q2 -8 4 -30t4 -46t4 -45t2 -29q2 -12 26 -16t59 -6t74 -6 t72 -13t55 -28t22 -53q0 -10 -8 -28t-20 -32t-27 -19t-27 7q-22 16 -47 22t-52 6t-55 -3t-54 -5q0 -76 3 -154t9 -166q110 -74 196 -188t139 -242t68 -261t-17 -245t-116 -194t-228 -108q2 -24 2 -65t-7 -80t-27 -68t-60 -29q-12 0 -27 9t-29 23t-23 30t-9 30q0 62 -3 96 t-7 49t-7 18t-5 3q-66 12 -130 47t-119 97t-97 151t-66 211zM388 1516q-8 -32 10 -59t82 -35l2 206q-30 -18 -58 -49t-36 -63zM672 1150q0 -126 2 -228t5 -202t6 -206t3 -240q104 28 155 89t65 142t-5 173t-55 180t-84 165t-92 127z" />
<glyph unicode="%" horiz-adv-x="1306" d="M158 98l946 1864q18 0 39 -8t39 -23t30 -34t12 -43l-932 -1836q-24 -18 -48 -22t-44 5t-32 33t-10 64zM176 1638q0 108 59 178t173 70q34 0 68 -12t61 -34t44 -54t17 -70q0 -58 -21 -104t-56 -80t-81 -53t-94 -21q-38 0 -69 16t-54 42t-35 58t-12 64zM744 243q0 51 23 96 t68 75t115 34q72 -2 117 -31t64 -73t14 -95t-31 -95t-72 -76t-110 -36q-62 2 -104 32t-63 74t-21 95z" />
<glyph unicode="&#x26;" horiz-adv-x="1374" d="M99 432q-19 158 14 315t108 301t177 256q-14 52 -28 111t-21 119t-7 120t16 116q12 48 41 90t70 71t90 40t103 -3q80 -36 112 -91t31 -121t-27 -139t-60 -143t-69 -135t-53 -113q62 -186 120 -323t108 -242t92 -186t74 -153q42 50 70 94t47 92t32 103t27 125q16 24 39 22 t42 -18t33 -42t12 -50q-10 -126 -68 -230t-132 -200q-2 -10 1 -22t25 -40t70 -80t136 -140q20 -22 17 -44t-18 -40t-40 -29t-49 -7q-40 8 -80 50t-78 93t-70 98t-58 63q-84 -70 -183 -112t-199 -45t-194 37t-166 134q-88 140 -107 298zM270 541q2 -101 26 -186t69 -146 t114 -82t159 7t202 120q-6 24 -30 76t-70 149t-117 247t-169 366q-64 -66 -105 -158t-61 -192t-18 -201zM487 1586q9 -62 29 -118q18 0 37 24t36 61t30 81t20 87t5 77t-14 52q-64 -12 -97 -53t-44 -95t-2 -116z" />
<glyph unicode="'" horiz-adv-x="362" d="M124 1464q0 42 25 54t65 12q50 0 60 -23t14 -69q12 -88 19 -176t13 -178q0 -42 -19 -60t-45 -18t-54 16t-48 42q-10 94 -17 190t-13 210z" />
<glyph unicode="(" horiz-adv-x="558" d="M132 901q-8 191 15 381t84 372t167 342q18 14 42 16t45 -7t33 -26t6 -41q-90 -166 -137 -353t-65 -377t-10 -374t32 -345t57 -289t65 -204q14 -36 7 -62t-26 -39t-45 -12t-50 19q-56 130 -103 290t-78 339t-39 370z" />
<glyph unicode=")" horiz-adv-x="550" d="M104 1922q-6 24 6 41t33 26t45 7t42 -16q106 -162 167 -343t84 -371t15 -380t-39 -370t-79 -340t-102 -290q-24 -18 -50 -19t-45 12t-26 39t7 62q32 76 65 204t57 289t32 345t-10 374t-66 377t-136 353z" />
<glyph unicode="*" horiz-adv-x="1190" d="M150 807q0 23 34 27h196q-4 8 -23 29t-41 49t-43 61t-29 64t0 57t44 40q32 0 62 -16t56 -40t49 -50t43 -44v238q0 26 22 29t36 3q48 0 72 -27t33 -67t6 -84t-5 -78l76 134q8 18 35 13t50 -21t33 -38t-14 -42q-4 -6 -17 -29t-29 -50t-30 -50t-18 -29q26 2 64 3t76 -2 t71 -10t50 -22t11 -39t-44 -58q-98 -16 -159 -16t-89 2t-25 -1t31 -26t79 -73t119 -140q12 -12 12 -30t-10 -34t-28 -28t-42 -14q-12 0 -38 23t-54 53t-52 57t-30 33q2 -30 14 -81t14 -98t-17 -76t-77 -15h-6q-22 4 -28 25t-7 57t-5 87t-20 117q-10 -4 -27 -31t-37 -57 t-39 -55t-33 -25t-32 5t-34 14t-27 22t-13 29q0 18 17 48t40 62t44 62t31 48l-188 -18q-22 2 -49 24t-44 49t-17 50z" />
<glyph unicode="+" horiz-adv-x="1306" d="M167 764q7 32 42 48t89 19t110 1t107 -5t79 1v414q84 18 116 -5t40 -80t4 -146t6 -203q144 -4 238 8t148 11t71 -31t7 -118l-460 -34q0 -72 1 -120t2 -91t2 -90t1 -119q0 -48 -26 -65t-58 -10t-61 34t-35 67l4 410h-52t-82 2t-95 4t-89 3t-63 3t-17 2q-36 58 -29 90z" />
<glyph unicode="," horiz-adv-x="400" d="M104 146q0 34 15 51t55 17q42 0 72 -33t48 -79t27 -95t9 -81q0 -28 -7 -65t-22 -69t-40 -54t-61 -22q-16 0 -31 11t-26 27t-17 34t-6 34q0 20 7 38t16 36t16 37t7 39q0 26 -10 47t-21 41t-21 40t-10 46z" />
<glyph unicode="-" d="M130 622q0 34 46 66q26 -4 94 -8t145 -4t149 3t108 11q38 12 75 -8t57 -53t13 -68t-57 -53h-464q-36 -6 -76 9t-65 43t-25 62z" />
<glyph unicode="." horiz-adv-x="422" d="M108 188q20 28 61 41t83 7t73 -32t31 -76q-10 -70 -57 -97t-96 -16t-82 56t-13 117z" />
<glyph unicode="/" horiz-adv-x="1202" d="M70 120q0 2 2 9t14 31t37 73t70 136t114 218t168 319t233 441t310 583q4 20 28 22t51 -11t49 -39t22 -62l-978 -1840q-18 0 -38 12t-38 30t-30 39t-14 39z" />
<glyph unicode="0" horiz-adv-x="1350" d="M79 996q3 188 45 368t120 321t190 226t256 83q148 -2 263 -89t195 -227t124 -318t49 -364t-29 -364t-109 -318t-193 -227t-280 -89q-166 -2 -287 83t-198 225t-113 321t-33 369zM236 1047q-8 -159 14 -315t73 -281t134 -208t197 -95q130 -14 224 47t156 173t93 259 t32 305t-26 313t-80 280t-132 208t-179 97q-116 16 -207 -45t-154 -172t-100 -259t-45 -307z" />
<glyph unicode="1" horiz-adv-x="378" d="M112 1922q0 26 21 30t49 -4t55 -25t39 -35q16 -458 23 -913t3 -931q-4 -26 -29 -36t-54 -7t-53 18t-28 41q0 42 -2 141t-3 234t-3 294t-5 320t-5 313t-3 272t-3 198t-2 90z" />
<glyph unicode="2" horiz-adv-x="1066" d="M142 96q0 8 3 23t18 64t48 146t93 270t154 435t230 642q0 24 6 49t5 47t-14 37t-49 19q-42 0 -84 -21t-81 -51t-74 -66t-63 -66t-50 -49t-32 -17q-22 4 -45 16t-38 30t-19 41t12 47q96 102 169 159t128 86t95 35t70 6q50 0 95 -11t78 -36t52 -64t19 -95 q-34 -210 -102 -412t-143 -402t-144 -402t-101 -414h606q24 -22 28 -48t-7 -49t-35 -37t-56 -8q-174 0 -337 9t-343 5q-42 2 -67 22t-25 60z" />
<glyph unicode="3" horiz-adv-x="1046" d="M100 1692q60 108 160 173t222 97q58 0 118 -9t109 -34t80 -69t31 -112q0 -42 -18 -92t-39 -96t-38 -84t-17 -56q94 -44 153 -117t90 -161t40 -186t3 -192q0 -68 -11 -153t-34 -171t-60 -168t-90 -145t-123 -102t-158 -39q-72 2 -127 35t-96 86t-69 120t-46 138t-30 140 t-20 125q0 56 31 78t83 22q42 0 61 -42t28 -106t14 -138t21 -138t48 -106t94 -42t109 35t83 92t60 127t39 141t21 136t6 109q0 62 -10 131t-30 132t-50 112t-72 72t-98 14t-126 -65q-18 0 -37 13t-34 32t-25 41t-10 40q38 26 89 54t97 73t80 117t38 184q-44 46 -86 54 t-82 -7t-78 -46t-72 -61t-64 -53t-54 -23q-36 0 -70 24t-34 66z" />
<glyph unicode="4" horiz-adv-x="1092" d="M88 1894q88 38 126 2t50 -120t10 -199t6 -235q80 -8 152 -20t141 -19t138 -5t145 20q0 136 -2 290t-6 298q0 32 16 47t39 17t48 -9t43 -31l60 -1842q0 -56 -29 -80t-64 -20t-65 34t-34 82q4 46 7 124t2 173t-3 200t-6 206t-9 191t-11 156q-18 -6 -71 -8t-124 0t-153 6 t-155 9t-130 9t-81 8q2 70 -3 160t-12 187t-15 193t-10 176z" />
<glyph unicode="5" horiz-adv-x="1202" d="M80 1896q2 20 17 32t35 18t40 8t36 2q96 -16 193 -15t194 8t194 15t193 6q40 16 70 8t48 -29t22 -48t-7 -51t-37 -38t-70 -6q-68 2 -168 0t-204 -7t-198 -11t-148 -12q0 -76 2 -121t4 -68t4 -30t4 -7q8 -2 44 17t85 42t104 43t99 20q106 0 185 -39t135 -103t93 -149 t59 -176t30 -183t8 -172q-8 -76 -24 -169t-45 -187t-73 -182t-105 -157t-143 -112t-186 -43q-102 0 -178 59t-127 145t-76 185t-25 179q0 36 23 56t51 25t55 -5t37 -30q4 -48 14 -125t36 -150t74 -125t126 -52q76 0 135 36t103 95t74 134t49 153t28 152t9 130q0 50 -5 117 t-18 138t-36 141t-61 125t-93 89t-129 34q-66 0 -116 -30t-91 -72t-74 -84t-66 -64t-69 -14t-80 68q10 144 -3 295t-57 291z" />
<glyph unicode="6" horiz-adv-x="1208" d="M109 772q-3 206 27 489t102 659q10 32 35 46t51 13t45 -16t17 -41q4 -48 -9 -139t-33 -209t-41 -256t-33 -280t-10 -281t29 -259t84 -213t155 -143q-6 88 -12 193t-1 213t27 212t72 186t133 135t211 63q92 -6 140 -58t62 -133t-4 -182t-59 -206t-103 -207t-137 -183 t-158 -133t-169 -60q-88 26 -164 75t-132 139t-89 230t-36 346zM679 366q3 -74 5 -126q54 40 106 111t94 152t70 164t36 150t-6 109t-58 40q-72 -2 -118 -42t-74 -103t-40 -142t-15 -159t0 -154z" />
<glyph unicode="7" horiz-adv-x="1138" d="M64 1857q-2 21 7 42t25 39q22 0 44 2t57 3t87 3t134 2t198 -2t280 -6q30 0 65 -3t65 -13t49 -31t19 -59q0 -20 -6 -46t-20 -86t-37 -168t-58 -292t-82 -458t-109 -664q-4 -20 -7 -44t-12 -44t-25 -33t-46 -13q-48 0 -77 34t-29 78v8q74 406 126 687t85 466t50 287t22 152 t-1 62t-16 14l-714 10q-38 14 -55 33t-19 40z" />
<glyph unicode="8" horiz-adv-x="948" d="M61 495q15 131 67 257t133 230t173 160q-86 64 -145 154t-87 185t-23 186t48 160t125 104t208 19q102 -14 161 -65t85 -123t22 -159t-27 -173t-61 -162t-82 -126q64 -82 120 -201t90 -249t38 -258t-34 -229t-126 -162t-240 -59h-8q-176 12 -276 86t-138 184t-23 241z M208 380q-2 -72 24 -127t84 -88t156 -33q104 0 163 50t84 129t20 179t-29 200t-63 192t-83 154q-46 -26 -95 -79t-95 -122t-83 -148t-59 -157t-24 -150zM328 1589q6 -63 33 -125t70 -117t97 -85q30 28 60 77t52 108t33 119t2 111t-42 85t-97 40q-82 8 -129 -21t-66 -79 t-13 -113z" />
<glyph unicode="9" horiz-adv-x="1064" d="M62 1274q2 82 31 165t80 155t118 129t144 88t162 30t169 -43q0 8 -1 27t-1 40t1 40t1 27q14 42 45 59t62 11t53 -32t20 -68q2 -58 6 -157t8 -224t8 -267t9 -288t11 -287t12 -264t12 -221t12 -154q-8 -24 -24 -46t-39 -30t-53 4t-64 56q-4 70 -8 166t-8 206t-8 227t-8 231 t-8 218t-8 186q-24 -98 -86 -167t-143 -107t-169 -41t-161 32t-123 108t-52 191zM218 1260q28 -110 80 -145t114 -17t126 76t114 131t79 150t21 133q-22 58 -55 82t-93 24q-72 -6 -147 -53t-133 -113t-90 -139t-16 -129z" />
<glyph unicode=":" horiz-adv-x="546" d="M154 538q20 28 61 41t83 7t73 -32t31 -76q-10 -70 -57 -97t-96 -16t-82 56t-13 117zM166 1152q20 28 61 41t83 7t73 -32t31 -76q-10 -70 -57 -97t-96 -16t-82 56t-13 117z" />
<glyph unicode=";" horiz-adv-x="452" d="M104 -192q38 28 57 65t23 79t-3 86t-17 84q0 16 15 30t36 23t43 14t36 5q28 -42 37 -109t4 -136t-25 -130t-50 -90t-70 -15t-86 94zM108 548q20 28 61 41t83 7t73 -32t31 -76q-10 -70 -57 -97t-96 -16t-82 56t-13 117z" />
<glyph unicode="&#x3c;" horiz-adv-x="948" d="M122 692q74 118 141 207t138 167t151 158l180 180q26 0 52 -13t42 -35t17 -49t-21 -53l-478 -554l26 -26t69 -67t97 -93t110 -104t107 -100t89 -82q40 -18 42 -49t-18 -58t-54 -39t-64 10q-32 42 -105 102t-163 135t-185 166t-173 197z" />
<glyph unicode="=" horiz-adv-x="924" d="M151 393q-5 23 2 55t21 64q12 8 53 13t97 7t121 2t124 2t106 6t69 14q38 -6 62 -36t28 -64t-15 -62t-65 -32q-94 6 -173 5t-143 -5t-115 -7t-87 1q-40 -8 -60 3t-25 34zM167 715q-5 23 2 55t21 64q12 8 53 13t97 7t121 2t124 2t106 6t69 14q38 -6 62 -36t28 -64t-15 -62 t-65 -32q-94 6 -173 5t-143 -5t-115 -7t-87 1q-40 -8 -60 3t-25 34z" />
<glyph unicode="&#x3e;" horiz-adv-x="1036" d="M186 179q2 31 42 49q38 34 89 82t107 100t110 104t97 93t69 67l26 26l-478 554q-22 26 -21 53t17 49t41 35t53 13q98 -100 179 -180t152 -158t138 -167t141 -207q-78 -106 -173 -197t-185 -166t-163 -135t-105 -102q-30 -22 -64 -10t-54 39t-18 58z" />
<glyph unicode="?" horiz-adv-x="976" d="M95 1607q9 41 49 71q40 56 107 109t147 92t164 59t156 9t123 -55t67 -134q20 -116 -11 -222t-90 -204t-133 -185t-140 -165l40 -452q-14 -50 -42 -76t-59 -29t-60 16t-47 57q2 46 -2 107t-11 124t-13 122t-6 99q-6 54 12 91t51 71t78 74t91 101t89 150t75 225 q16 64 -8 88t-72 20t-111 -31t-127 -68t-120 -91t-88 -96q-36 -18 -65 -1t-41 50t-3 74zM368 142q14 48 51 75t78 30t76 -19t47 -72q4 -70 -34 -104t-86 -35t-89 30t-43 95z" />
<glyph unicode="@" horiz-adv-x="1674" d="M108 882q0 260 69 454t181 322t253 191t284 64t276 -62t228 -186t140 -307t13 -426q60 -184 41 -354t-111 -300t-250 -206t-374 -72q-114 0 -213 37t-183 100t-149 149t-111 184t-70 203t-24 209zM272 904q0 -140 39 -273t116 -237t190 -167t263 -63q96 2 193 45t173 115 t119 167t31 199q-62 -54 -123 -66t-112 10t-89 74t-54 126q-86 -102 -169 -127t-153 1t-122 92t-76 147t-13 165t66 147t159 92t268 1q8 40 31 62t48 25t47 -17t32 -64q-14 -206 -3 -326t37 -174t61 -51t69 44t60 110t36 147q-14 186 -69 315t-136 204t-181 100t-202 2 t-199 -89t-172 -171t-120 -248t-45 -317zM650 1079q-8 -49 3 -95t39 -81t68 -42t89 19t103 104q0 6 -2 41t-4 74t-4 74t-4 41q-94 20 -154 4t-93 -53t-41 -86z" />
<glyph unicode="A" horiz-adv-x="1142" d="M100 104q40 292 69 516t50 397t35 303t24 232t17 186t15 164q-10 34 9 54t51 28q21 5 47 5q13 0 26 -1q41 -4 76 -18t58 -39t23 -57l530 -1790q0 -34 -24 -60t-55 -39q-27 -11 -53 -11h-8q-30 2 -44 26l-232 854q-32 12 -77 16q-16 1 -33 1q-29 0 -59 -4q-47 -7 -90 -25 t-71 -48q-10 -172 -34 -340t-56 -364q1 -9 1 -16q0 -35 -22 -51q-23 -16 -53 -16h-9q-35 3 -69 29t-42 68zM398 1048q0 -24 33 -31q26 -5 57 -6q9 0 19 1q43 2 86 10t61 12l-148 632q-24 -60 -41 -140t-29 -165t-21 -167t-17 -146z" />
<glyph unicode="B" horiz-adv-x="1140" d="M77 1954q-1 11 -1 20q0 26 9 47q13 29 65 37v-18q48 0 72 -26t34 -64t12 -82t2 -80q36 64 95 103t126 52q35 7 70 6q32 0 65 -5q68 -12 121 -48t84 -96q26 -50 26 -116q0 -13 -1 -26q0 -88 -27 -169t-79 -157q86 -42 151 -120t108 -175t67 -203t28 -200q4 -30 3 -60 q0 -72 -20 -141q-29 -97 -86 -177t-138 -140t-173 -90q-77 -25 -158 -25q-16 0 -33 1q-99 6 -191 58q-24 -36 -53 -42t-53 11t-41 49t-17 72l-38 1654q0 30 -12 71t-17 79zM303 1415q1 -45 13 -75q30 -8 60 -8l48 5q54 11 101 41t84 74t58 97q20 51 20 106v5q-1 58 -27 114 q-17 1 -33 1q-58 0 -104 -17q-59 -22 -101 -60t-69 -88t-39 -100q-11 -46 -11 -88v-7zM316 1100q0 -34 2 -97t5 -139t7 -161t6 -166t3 -151v-44q0 -41 -1 -72q8 -54 59 -82t122 -28t149 30t142 90t101 153q29 73 29 167q0 25 -2 52q0 74 -24 163t-69 166t-108 129t-141 52 q-34 0 -72 -12t-75 -25t-72 -22t-61 -3z" />
<glyph unicode="C" horiz-adv-x="1140" d="M108 962q-1 29 -1 58q0 148 26 292q31 172 89 314t137 240t171 127q32 10 65 10q61 0 126 -35q99 -54 195 -214q7 -24 7 -47q0 -11 -2 -22q-5 -33 -20 -55t-37 -28t-48 12q-90 126 -164 161q-38 18 -71 18t-62 -17q-59 -34 -103 -123t-73 -209t-44 -259t-15 -273 q0 -46 1 -120t9 -157t26 -167t52 -152t87 -110t131 -42q80 0 133 36t86 91t53 120t36 121t33 96t45 46q18 2 36 -5t34 -20t26 -30t10 -33q3 -26 3 -53q0 -44 -8 -93q-13 -78 -44 -152t-81 -139t-115 -110t-144 -63q-36 -8 -74 -8q-47 0 -97 12q-158 60 -242 165t-122 238 t-44 282t-6 297z" />
<glyph unicode="D" horiz-adv-x="1214" d="M122 26q0 116 4 268t10 320t13 346t13 347t10 320t4 269q-3 15 -3 28q0 24 10 39q15 23 40 27q6 1 12 1q20 0 42 -10q29 -13 49 -38t23 -61v-8q0 -33 -21 -70q158 112 288 141q57 13 108 13q65 0 122 -21q100 -37 170 -129t107 -220t41 -282v-36q0 -137 -26 -278 q-30 -160 -97 -318t-170 -293t-245 -237t-324 -152q-8 -42 -41 -59q-24 -13 -50 -13q-9 0 -18 2q-35 6 -59 32q-16 17 -16 44q0 13 4 28zM301 890q1 -354 1 -732q158 42 278 133t204 213t135 264t71 285q14 102 14 200q0 39 -2 77q-8 134 -43 239t-94 171t-139 73 q-8 1 -17 1q-74 0 -164 -55q-101 -61 -217 -211q-27 -294 -27 -634v-24z" />
<glyph unicode="E" horiz-adv-x="972" d="M112 86q18 54 27 161t12 251q2 72 1.5 152t-1.5 167q-3 175 -9 364t-13 384t-13 383q0 8 29 12t110 4t223 -1t368 -1q26 0 38 -22t11 -49t-13 -51t-36 -28q-52 -2 -119 -5t-137 -6t-139 -5q-34 -1 -65 -1t-58 1q0 -44 -3 -130t-3 -178t7 -174t25 -120q8 -2 45 -5t79 -6 t79 -6t45 -5q26 -10 41 -29t18 -39t-8 -35t-37 -17q-18 0 -56 -3t-81 -6t-83 -4t-58 5q-16 -94 -21 -192q-4 -82 -5 -168q0 -17 1 -34q1 -104 5 -216t4 -234l566 -12q10 -4 21 -20t16 -36q2 -8 2 -15q0 -12 -5 -24q-8 -19 -34 -29q-12 -12 -73 -21t-145 -13q-56 -3 -117 -3 q-31 0 -63 1q-96 2 -178 8t-138 19t-62 31z" />
<glyph unicode="F" horiz-adv-x="1066" d="M114 110q2 218 11 439t16 443q6 194 6 388v55q-1 221 -19 441q0 28 3 45t13 26t28 13t46 4q98 -24 193 -25h21l169 7l190 16q48 4 95.5 4t95.5 -4q34 -10 46 -29q11 -18 11 -38q0 -25 -14 -51q-13 -24 -27 -46q-55 3 -112 3q-29 0 -59 -1q-89 -2 -178 -6t-176 -11 t-165 -15q-1 -27 -1 -68v-45q1 -73 4 -157t6 -165t7 -135q20 2 55 6t76 8t83 4t76 -8t55 -26t21 -50q0 -34 -20 -59t-54 -25q-26 0 -64 -2t-79 -4t-81 -5t-68 -3q-8 -240 -11 -480t-19 -480q-6 -46 -34 -62q-19 -11 -40 -11q-9 0 -19 2q-31 7 -58 35t-29 72z" />
<glyph unicode="G" horiz-adv-x="1148" d="M116 572q-2 51 -2 103q0 78 4 157q6 132 17 261t17 241q6 68 27 146t53 154t74 145t92 118t104 72q34 14 69 14q21 0 43 -5q38 0 66 -11t53 -28t49 -39t56 -42q0 -124 -47 -141q-6 -2 -13 -2q-47 0 -130 97h-10q-78 0 -138 -59q-64 -63 -109 -173t-71 -256t-36 -307 q-7 -107 -7 -217q0 -55 2 -110q5 -166 23 -316q32 -106 66 -151t69 -45t67 38t60 97t49 133t33 147t14 138v18q0 53 -10 89q-40 108 -42 190v8q0 77 37 129q39 55 123 82t216 27q50 0 81 -16t31 -74q0 -2 -1 -11t-2 -35l-3 -78t-3 -141t-3 -222t-2 -323q0 -42 -24 -59 t-55 -15t-60 22t-41 52q16 174 19 348v42q0 154 -19 314q-2 0 -7 1t-7 1q-18 0 -49 -1t-49 -11q14 -86 21 -202q3 -51 3 -102q0 -67 -5 -135q-9 -121 -37 -238t-84 -206t-143 -137q-67 -37 -158 -37q-27 0 -55 3q-76 44 -122 128t-68 193t-26 237z" />
<glyph unicode="H" horiz-adv-x="1014" d="M120 48l2 1854q60 58 96 59h2q35 0 53 -37q19 -38 25 -106t6 -148t-4 -165t-5 -156v-17q0 -60 6 -104q7 -50 27 -60q94 0 194 24t192 52q8 14 8 60t-4 111t-9 142q-4 64 -4 125v24q1 72 10 134t32 97t62 36h2q39 0 99 -45q2 -128 2 -281t-1 -317t-2 -333v-84 q0 -125 2 -244q3 -159 9 -302t18 -255q0 -46 -24 -75t-57 -35q-8 -1 -15 -1q-25 0 -50 15q-32 20 -48 74q2 122 2 244t-2 243q-4 243 -16 487q-108 0 -217 -11t-217 -49l-2 -942q0 -46 -25 -66t-56 -20t-58 19t-33 53z" />
<glyph unicode="I" horiz-adv-x="422" d="M84 1918q22 30 52 31h3q28 0 54 -16q27 -17 47 -46t24 -59q28 -426 59 -866t31 -872q4 -16 4 -29q0 -21 -12 -34q-20 -21 -50 -24q-5 -1 -10 -1q-25 0 -52 13q-32 15 -46 45q-8 46 -13 99t-10 137t-11 209t-15 317t-22 460t-33 636z" />
<glyph unicode="J" horiz-adv-x="962" d="M70 892q0 32 20 48t47 18t55 -10t42 -34q-14 -44 -14 -100q0 -15 1 -32q5 -76 28 -158t59 -160t80 -139t91 -94q37 -26 71 -26q10 0 19 2q43 9 80 68t61 185q8 50 11 146q2 58 2 125q0 45 -1 95q-2 124 -9 268t-19 291t-29 288t-41 259v10v6q35 45 70 45q6 0 11 -1 q41 -8 85 -60q26 -202 51 -403t37 -403q7 -121 7 -242q0 -81 -3 -162q-8 -202 -48 -408q-8 -48 -32 -103t-61 -102t-85 -79t-102 -32q-84 0 -153 48t-122 126t-93 176t-65 197t-38 190t-13 157z" />
<glyph unicode="K" horiz-adv-x="1202" d="M100 1920q2 36 28 51q19 11 41 11q9 0 18 -2q33 -6 61 -30t32 -62q0 -22 1 -65t3 -98t3 -116t3 -115t3 -98t1 -64q56 58 97 103t74 86t63 81t66 86t83 102t115 130q14 26 47 27h3q31 0 59 -17q29 -18 43 -50q5 -12 5 -25q0 -23 -15 -49q-174 -196 -274 -310t-149 -176 t-62 -86t-15 -40q-42 40 -30 25t62 -68t130 -137t173 -181t192 -198t189 -191q-2 -24 -13 -49t-28 -42t-40 -21t-47 16l-712 712q-6 -83 -6 -179v-49q2 -124 8 -253t12 -254t10 -227q-2 -38 -25 -53q-20 -13 -46 -13h-7q-30 2 -59 19t-43 43z" />
<glyph unicode="L" horiz-adv-x="1118" d="M108 1932q4 28 26 39q19 9 41 9h8q27 -2 52 -15t37 -33q36 -214 48 -438t21 -448t24 -443t57 -423q142 18 286 24t286 6q36 0 61 -14t34 -37q5 -12 5 -25q0 -12 -4 -24q-8 -26 -38 -50q-216 -10 -390 -20t-314 -26q-78 0 -114 33t-36 117q1 59 1 119q0 386 -23 767 q-26 440 -68 882z" />
<glyph unicode="M" horiz-adv-x="1314" d="M120 1890q2 36 29 52t64 18h13l61 -7q37 -9 57 -27l294 -292l178 324q50 44 87 44t62 -30t38 -80t15 -102q2 -6 4 -18t9 -63t22 -154t40 -291t64 -474t95 -700v-8q0 -42 -37 -57q-22 -9 -45 -9q-16 0 -32 4q-40 10 -69 47q-18 23 -18 54q0 20 7 43l-174 1478 q-20 -18 -42 -61t-48 -87t-55 -78t-61 -34q-22 0 -53 21t-65 55t-69 74t-67 78t-57 68t-39 44q2 -176 5 -397t6 -452t6 -452t7 -397q-20 -28 -52 -38q-19 -6 -37 -6q-13 0 -26 3q-31 7 -54 29t-27 58q2 266 2 527q0 196 -1 389q-3 450 -37 904z" />
<glyph unicode="N" horiz-adv-x="1182" d="M86 1906q0 40 22 60t52 23q6 1 11 1l49 -11q30 -13 46 -39q208 -448 338 -740t202 -462t98 -237t26 -65q0 150 -2 344t-3 396t-3 396t-2 344q0 34 19 51t46 20t56 -8t47 -31q8 -112 10 -262q1 -100 1 -208v-111q-1 -169 -4 -348t-4 -346v-82q0 -122 2 -233 q3 -148 15 -254q2 -11 2 -20q0 -37 -25 -59q-31 -27 -74 -29h-7q-39 0 -75 20q-39 22 -45 70l-604 1390q10 -80 14 -195t5 -247q0 -66 0.5 -134.5t-0.5 -139.5t-1 -140.5t1 -136.5q1 -135 3 -255t10 -208q-2 -36 -27 -54q-24 -17 -54 -17h-3q-32 1 -63 23t-47 64q2 99 2 200 q0 127 -3 258q-5 236 -12 476t-13 477t-6 459z" />
<glyph unicode="O" horiz-adv-x="1136" d="M106 1042v219t17 258t57 246t118 183q24 22 66 30q34 6 70 7q9 0 18 -1q46 -2 89 -12t73 -24q106 -38 191 -143t144 -251t92 -320t37 -349q1 -23 1 -45q0 -151 -24 -293q-27 -163 -86 -287t-152 -196q-84 -65 -197 -65q-13 0 -26 1q-108 0 -186 57t-132 149t-87 207 t-52 230t-25 221t-6 178zM258 1210q0 -114 9 -227t22 -213t29 -180t30 -126q8 -42 28 -94t50 -98t70 -77t92 -31q12 -2 24 -2q65 0 116 47q60 55 101 137t63 177t24 167q3 72 3 139q0 214 -29 382q-38 221 -105 362t-149 205q-69 54 -132 54q-12 0 -24 -2q-64 -14 -107 -70 t-69 -141t-36 -190t-10 -219z" />
<glyph unicode="P" horiz-adv-x="924" d="M92 1906q46 50 80 51h2q33 0 54 -32q22 -33 32 -93q8 -50 8 -108v-24q26 38 65 91t84 98t97 73q38 21 78 21q14 0 28 -3q44 0 86 -18t75 -51t55 -77t30 -96q6 -55 6 -105q0 -201 -102 -330q-128 -161 -446 -225q-2 -40 -2 -83q0 -72 6 -155q10 -132 25 -270t28 -272 t13 -242q0 -32 -20 -44q-18 -11 -44 -11h-4q-28 1 -56 13t-42 30q-12 234 -24 463t-29 459t-37 464t-46 476zM312 1260q32 -7 63 -7q45 0 88 15q73 26 130 78t94 121t47 138q3 21 3 41q0 46 -16 89q-23 61 -85 95q-54 0 -104 -40t-92 -96t-75 -115t-53 -95v-8v-8v-40v-64 v-64v-40z" />
<glyph unicode="Q" horiz-adv-x="1326" d="M106 950q6 90 15 202t29 227t55 224t93 193t145 133q84 47 199 47h10q140 -54 237 -154t160 -229t92 -278t30 -300v-13q0 -144 -22 -284q-23 -146 -65 -266q0 -58 35 -106t78 -93t78 -93t35 -106q0 -30 -20 -43t-48 -15t-56 8t-42 28q-8 12 -30 44t-46 68t-45 69t-29 45 h-14q-20 -48 -54 -97t-79 -90t-100 -69t-115 -30q-106 0 -186 51t-139 133t-97 187t-61 214t-33 212t-10 181zM272 742q12 -170 53 -306t112 -223t175 -91q38 0 85 32t86 78t66 96t27 86q0 46 -33 84t-73 74t-73 74t-33 84q0 38 32 46t58 8q36 0 64 -19t51 -47t43 -60 t38 -56q54 112 69 238q8 68 8 135q0 59 -6 117q-13 126 -51 244t-91 215t-115 165t-125 91q-29 11 -57 11q-33 0 -65 -15q-59 -27 -105 -121q-56 -112 -92 -269t-48 -329q-6 -86 -6 -171.5t6 -170.5z" />
<glyph unicode="R" horiz-adv-x="1316" d="M108 1990v8q4 30 27 41q17 8 37 8q7 0 15 -1q29 -4 54 -23t31 -45l32 -376q32 48 87 116t124 128t146 99q59 30 116 30q18 0 35 -3q36 -4 74 -19t70 -41t50 -61q16 -32 16 -69v-8q-34 -110 -99 -192t-147 -150t-174 -130t-178 -130v-8v-6q4 -8 14 -26t12 -22l854 -1000 q1 -8 1 -15q0 -50 -24 -84q-21 -31 -68 -31q-12 0 -25 2q-10 0 -29 16t-56 57t-97 110t-150 177t-214 258t-292 352q-14 -108 -15 -217q0 -54 -0.5 -109t0.5 -110q1 -110 3 -222v-45q0 -90 -6 -181q-4 -60 -31 -83q-25 -21 -54 -21h-5q-32 2 -60 23t-32 47v23v83t-2 189 t-7 342t-13 539t-20 780zM422 1394h4q21 0 57 19q39 21 85 55t92 78t84 89t63 87t27 72q-31 23 -69 23q-6 0 -12 -1q-45 -4 -91 -30t-89 -70t-77 -97t-54 -111t-20 -114z" />
<glyph unicode="S" horiz-adv-x="876" d="M74 872q0 40 31 49q13 4 27 4q19 0 39 -7q35 -12 62 -41q22 -24 22 -52q0 -6 -1 -13q30 -72 50 -145t39 -138t39 -121t48 -94t68 -57q26 -12 60 -12q18 0 38 3q20 6 20 55v9q-2 58 -22 151t-52 214t-68 250t-73 259t-65 242t-44 199q-13 70 -13 112q0 11 1 19 q26 108 80 166t119 70q20 4 39 4q46 0 93 -20q67 -28 118 -90t79 -153q19 -61 19 -131q0 -35 -5 -72q0 -16 -2 -42t-10 -51t-23 -43t-41 -14q-60 6 -83 40t-26 80q-1 15 -1 31q0 32 4 67.5t4 68.5q0 17 -1 33q-3 48 -25 83t-82 47q-50 -16 -67 -49t-18 -73v-10q0 -35 6 -74 q5 -34 5 -64v-16l282 -962q14 -68 32 -153q16 -76 16 -149v-16q-2 -80 -35 -145t-119 -91h-21q-97 0 -165 34q-76 38 -129 103t-87 151t-61 181t-50 191t-51 182z" />
<glyph unicode="T" horiz-adv-x="1470" d="M115 1829q-6 12 -6 30q0 29 17 73q310 20 607 26q148 3 299 3t304 -3q38 -10 58 -36t20 -54t-22 -51t-66 -23q-36 -3 -75 -3q-32 0 -66 2q-75 5 -148 9q-42 2 -81 2q-30 0 -58 -1q-66 -3 -116 -25l52 -1726q-8 -32 -30 -45t-49 -13t-53 14t-40 36l-26 1742q-30 13 -78 13 h-18q-60 -3 -126 -10t-130 -11q-17 -1 -33 -1q-43 0 -75 8q-44 11 -61 44z" />
<glyph unicode="U" horiz-adv-x="1230" d="M110 1924q0 48 28 64q21 12 47 12q8 0 16 -1q35 -5 65 -24t34 -43q5 -91 5 -202v-37q-1 -133 -3 -280q-1 -74 -1 -148.5t1 -149.5q2 -151 13 -292t34 -264t64 -213t104 -139q56 -44 134 -44q9 0 19 1q92 24 154 101t102 188t59 248t26 282q4 92 4 184q0 52 -1 105 q-4 144 -10 269t-11 221q-4 69 -4 115q0 18 1 33q0 42 24 59t56 14t61 -24t41 -53q-10 -152 -10 -321q0 -42 1 -85q1 -93 1 -184q0 -122 -2 -244q-4 -212 -24 -407t-74 -343t-152 -236q-96 -86 -251 -86h-7q-138 0 -232 62t-155 168t-93 248t-45 300t-14 322v81q0 121 2 236 q3 153 4 284v20q0 118 -11 203z" />
<glyph unicode="V" horiz-adv-x="1268" d="M70 1840q-4 9 -4 18q0 19 18 36q26 24 64 37q35 12 70 12h5q37 -1 49 -19l460 -1570l308 1588q24 52 57 60q9 2 18 2q23 0 45 -15q30 -21 47 -64q11 -27 11 -58q0 -18 -4 -37l-320 -1700q-6 -60 -39 -98t-72 -45q-8 -1 -16 -1q-31 0 -61 21q-38 27 -54 97z" />
<glyph unicode="W" horiz-adv-x="1564" d="M66 1884q2 26 22 42t45 22t48 -2t31 -30l360 -1546l180 708q40 42 76 69t71 27t72 -32t79 -108l196 -538l122 1438q18 26 47 42t58 17h3q27 0 47 -17q21 -18 25 -60q0 -20 -6 -88t-16 -162t-22 -201t-22 -202t-18 -166t-8 -93q-8 -90 -16 -189t-16 -200t-15 -200 t-13 -189q-3 -27 -3 -55q0 -14 1 -28q0 -10 1 -19q0 -32 -6 -59q-7 -35 -33 -57t-82 -22q-46 0 -68 40q-20 37 -20 73v7l-282 836l-244 -896q-6 -30 -25 -41t-42 -9t-49 13t-46 25q-94 380 -163 663t-117 486t-77 335t-46 211t-23 113t-6 42z" />
<glyph unicode="X" horiz-adv-x="1266" d="M78 78q50 96 109 215t119 240t116 237t98 206v8q0 2 2 6q-110 230 -186 388t-125 261t-75 160t-38 84t-14 32t-2 7q4 32 26 47t49 16t53 -13t40 -38l206 -412t111 -218t48 -86t17 -16l4 -2h4l402 776q26 16 55 19q6 1 11 1q22 0 41 -10q23 -12 32 -41q4 -12 4 -28 q0 -21 -7 -47q-50 -100 -111 -215t-122 -234t-118 -236t-97 -221q12 -46 44 -114t75 -146t92 -162t97 -164t90 -149t68 -119q17 -23 17 -44q0 -4 -1 -8q-4 -24 -22 -40t-46 -25q-23 -7 -44 -7h-10q-22 2 -47 33t-73 117t-130 242t-220 410l-390 -770q-16 -16 -43 -23t-52 -1 t-43 26q-15 16 -15 45q0 6 1 13z" />
<glyph unicode="Y" horiz-adv-x="1006" d="M59 1909q11 25 37 35t59 0t63 -46q16 -18 53 -59t85 -94t101 -113t100 -112t83 -91t50 -51l126 562q26 42 57 52q15 5 29 5t27 -5q25 -10 40 -34q11 -17 11 -34q0 -7 -2 -14l-432 -1876q-8 -20 -32 -28q-16 -5 -33 -5q-8 0 -17 1q-26 4 -47 19t-21 43l248 1120l-580 668 q-9 19 -9 35q0 12 4 22z" />
<glyph unicode="Z" horiz-adv-x="1036" d="M62 1906q0 16 11 28t28 19t35 10t30 3q8 0 13 -1l20 -4t47 -5t94 -4t162 -3q33 0 72 -1q78 0 180 2q16 3 29 3q49 0 71 -34t22 -94q0 -15 -1 -32q-7 -83 -42 -200t-87 -255t-114 -291t-123 -308t-116 -305t-91 -282q86 2 165 8l158 12t160 9q27 1 55 1q56 0 116 -4 q34 -14 45 -42q6 -15 6 -30q0 -12 -4 -25q-9 -27 -37 -48t-76 -21q-52 6 -107 6q-21 0 -42 -1q-77 -3 -161 -9t-180 -11q-44 -2 -90 -2q-56 0 -116 3q-12 0 -31 8t-36 21t-26 29t-1 34l630 1704q-54 18 -127 19h-29q-59 0 -120 -3q-76 -4 -148 -8q-26 -1 -50 -1q-42 0 -78 4 q-56 7 -89 29q-28 19 -28 57q0 7 1 15z" />
<glyph unicode="[" horiz-adv-x="742" d="M122 2068l516 22q20 -4 33 -23t13 -42t-14 -44t-50 -29q-34 -14 -90 -13t-109 0t-92 -14t-41 -55l46 -1858q8 0 50 -4t92 -7t95 -4t61 3q32 0 52 -24t23 -54t-11 -56t-48 -30q-158 -4 -247 -4t-136 8t-61 25t-22 45q-8 144 -13 317t-9 362t-8 386t-8 389t-10 371t-12 333 z" />
<glyph unicode="\" horiz-adv-x="1052" d="M46 1886v8q0 16 10 28t25 21t32 14t31 5q22 0 48 -23t34 -39l754 -1762q24 -44 16 -79t-34 -51t-62 -10t-66 46q-178 394 -305 682t-214 491t-139 332t-80 202t-38 102t-12 33z" />
<glyph unicode="]" horiz-adv-x="770" d="M155 -78q3 30 23 54t52 24q14 -4 60 -3t96 4t92 7t50 4l46 1858q-2 42 -41 55t-92 14t-109 0t-90 13q-36 8 -50 29t-14 44t13 42t33 23l516 -22q-8 -154 -13 -333t-9 -371t-8 -389t-8 -386t-10 -362t-12 -317q-8 -28 -22 -45t-61 -25t-136 -8t-247 4q-34 4 -48 30t-11 56 z" />
<glyph unicode="^" horiz-adv-x="610" d="M92 834v8l138 262q18 34 46 49t60 12t64 -25t58 -62l112 -234q-6 -36 -27 -55t-48 -22t-52 8t-37 39l-66 140l-98 -188q-12 -20 -35 -19t-47 13t-44 32t-24 42z" />
<glyph unicode="_" horiz-adv-x="1426" d="M101 107q-7 37 16 65t91 18q536 -30 1074 0q48 12 78 -13t36 -62t-15 -72t-75 -43q-26 0 -110 1t-197 1h-240h-240h-197t-110 2q-42 0 -73 33t-38 70z" />
<glyph unicode="`" horiz-adv-x="414" d="M75 1422q3 28 25 44t52 15t52 -27l156 -144q6 -30 0 -53t-23 -34t-40 -9t-49 22l-144 126q-32 32 -29 60z" />
<glyph unicode="a" horiz-adv-x="990" d="M92 360q0 76 19 174t55 199t89 195t121 161t149 96q41 15 86 15q44 0 91 -14v120q55 28 95 28q17 0 31 -5q48 -17 58 -121q10 -250 18 -426t14 -295t10 -190t7 -107t4 -47t1 -13q0 -44 -18 -84t-45 -59q-18 -13 -38 -13q-10 0 -20 3q-31 9 -59 63q-2 19 -2 38q0 24 3 49 q5 45 8 89q2 26 2 53q0 18 -1 35q-2 44 -18 86q-24 -50 -58 -119t-79 -131t-105 -104q-52 -37 -116 -37q-9 0 -18 1q-72 6 -125 38t-88 81t-53 112t-18 129zM261 458q-5 -44 -5 -84q0 -56 10 -104q18 -84 80 -120q10 -2 19 -2q49 0 92 44q51 52 91 138t68 194t44 209t19 183 q1 19 1 36q0 55 -8 84q-16 4 -33 4l-103 -38q-68 -50 -125 -136t-97 -195t-53 -213z" />
<glyph unicode="b" horiz-adv-x="846" d="M74 1928q18 34 40 43q13 5 26 5q9 0 17 -2q21 -6 40 -22t33 -30q0 -10 1 -82t2 -175t1 -221t1 -221t1 -175v-82q14 18 38 41t56 42t71 31q26 8 55 8q15 0 30 -2q84 -18 147 -76t103 -140t56 -180q10 -60 9 -120q0 -37 -3 -75q-10 -97 -46 -185t-99 -151t-154 -93 q-57 -19 -126 -19q-41 0 -87 7q-18 -2 -19 -28t-6 -56t-23 -53q-15 -20 -55 -20q-7 0 -15 1q-36 2 -55 21t-27 45t-9 55t-1 53zM248 422q4 -82 28 -143t72 -79q14 -2 28 -2q56 0 104 32q60 40 101 109t60 156q13 61 13 121q0 25 -2 50q-8 84 -48 153t-118 103h-9 q-53 0 -96 -42q-47 -46 -78 -121t-45 -165q-11 -70 -11 -135q0 -19 1 -37zM280 40q0 8 4 8q6 -2 6 -10q0 -6 -4 -6h-2q-4 0 -4 8z" />
<glyph unicode="c" d="M66 626q2 72 16 164t49 173t96 134q57 49 145 49h14h16q39 0 73 -8q41 -10 72 -33t48 -57q15 -30 15 -67v-9q0 -8 -9 -18t-22 -20t-26 -16t-21 -4q-18 6 -31 19t-25 27t-27 25t-35 11q-32 0 -56 -24t-43 -63t-32 -86t-21 -93t-13 -85t-5 -59q-2 -46 -2 -116t13 -136 t48 -114t101 -50h9q44 0 77 17q36 19 63 48t47 63t39 63t39 48t46 19q88 -2 110 -96q-20 -58 -62 -117t-97 -107t-120 -77q-61 -27 -122 -27h-9q-116 6 -188 70t-111 157t-51 199q-9 80 -9 150q0 24 1 46z" />
<glyph unicode="d" horiz-adv-x="980" d="M84 531q16 107 55 203t99 172t129 116q60 35 123 35q9 0 19 -1q73 -6 143 -72v214t-2 227t-6 229t-12 218q18 46 46 66q25 18 50 18h5q27 -2 48 -24t25 -60q2 -94 5 -236t6 -302t4 -324q0 -82 0.5 -158t-0.5 -145q-1 -139 -3 -238t-6 -129q10 2 18 2q26 0 42 -18 q22 -24 25 -59v-10q0 -30 -15 -59q-18 -34 -58 -46q2 -16 2 -37t-1 -45t-1 -46v-38v-34q0 -30 -23 -50t-53 -20q-54 0 -77 20t-29 50q-4 22 -4 48v18v14q0 28 -6 54q-72 -58 -159 -60h-9q-82 0 -158 35q-80 37 -141 106t-77 157q-11 57 -11 115q0 46 7 94zM250 380 q0 -72 45 -120t108 -62q22 -5 45 -5q42 0 87 17q69 26 117 102l-2 478q-62 64 -132 64t-130 -56t-99 -163t-39 -255z" />
<glyph unicode="e" horiz-adv-x="908" d="M-9 435q-6 13 -6 27q0 23 15 52q8 0 36 3t58 10t56 18t30 29q16 56 31 130t34 154t47 157t70 138t101 98t143 37q46 0 87 -22t71 -55t48 -74t18 -79q3 -15 3 -32q0 -35 -14 -75q-21 -59 -60 -119t-91 -119t-106 -110t-103 -90t-83 -59q-13 -38 -13 -82q0 -11 1 -22 q4 -56 23 -102t52 -75q26 -23 59 -23q9 0 19 2q45 8 99 59t116 163q52 0 82 -12t45 -27t19 -31t4 -24q0 -32 -45 -78t-107 -89t-124 -73t-98 -30q-82 0 -137 33t-91 85t-56 115t-28 121q-20 -5 -44 -5q-15 0 -32 2q-44 5 -79 23t-50 51zM374 668q24 14 58 45t71 73t71 88 t56 88t28 77q1 8 1 15q0 24 -15 38q-26 16 -49 16q-14 0 -28 -6q-35 -16 -65 -56t-53 -97t-39 -113t-25 -102t-11 -66z" />
<glyph unicode="f" horiz-adv-x="754" d="M54 1128q0 26 26 39t60 19t65 7t43 3q0 164 30 313t88 258t141 168q67 48 150 48q20 0 41 -3q36 -4 70 -24t54 -47q17 -23 17 -48v-7q-3 -28 -39 -48q-29 5 -57 5q-63 0 -116 -29q-75 -42 -123 -125t-65 -196q-8 -52 -8 -106q0 -63 11 -129h63t87 -8t76 -27t32 -55 q0 -46 -36 -67t-82 -30t-88 -11t-52 -10q0 -30 3 -103t7 -168t10 -201t10 -201t7 -168t3 -103q0 -70 -25 -95q-21 -21 -47 -21q-6 0 -11 1q-33 5 -61 35t-34 70q6 44 6 119t-3 165t-9 189t-13 190t-13 167t-8 122q-24 0 -60 4t-69 15t-57 33t-24 60z" />
<glyph unicode="g" horiz-adv-x="908" d="M96 360q-2 25 -2 51q0 59 12 123q18 92 54 182t88 170t114 136t129 81q37 14 75 14q30 0 60 -9q12 52 28 86t76 34q44 0 66 -31t30 -73t8 -85t2 -67q-9 -78 -9 -188v-22q1 -124 8 -268t14 -300t7 -305t-10 -284t-39 -237t-81 -162t-134 -62q-66 0 -119 38t-92 96t-60 125 t-21 125v8q6 20 6 34t5 23t17 14t40 5q54 0 80 -23t37 -56t12 -73t5 -73t15 -56t41 -23q40 8 65 72t40 160t21 211t7 224v53q0 78 -2 146q-3 90 -5 136q-24 -46 -61 -93t-78 -85t-80 -63t-67 -25q-62 0 -119 25t-99 69t-65 101q-20 49 -20 102q0 10 1 19zM234 417v-12 q0 -61 18 -101q36 -82 85 -91q9 -2 19 -2q40 0 81 31q51 38 98 114t79 165t42 180q3 28 3 55q0 58 -15 106q0 22 -14 41t-32 33q-19 5 -37 5q-39 0 -75 -20q-54 -29 -99 -84t-79 -128t-53 -148t-21 -144z" />
<glyph unicode="h" horiz-adv-x="880" d="M84 1922q0 32 24 42q17 7 37 7q8 0 17 -1q30 -4 56 -17t30 -27l8 -1046q38 34 83 66t95 52t104 23h12l96 -21q80 -32 116 -110t49 -198t15 -277t14 -347q0 -34 -20 -60t-48 -33q-8 -2 -17 -2q-20 0 -41 12q-30 17 -50 65q-7 101 -7 207v26v47q0 93 -3 177q-4 105 -17 187 t-47 120q-24 27 -62 27q-15 0 -32 -4q-60 -15 -156 -101q-40 -82 -54 -189t-15 -209v-25q0 -87 6 -162q7 -85 9 -125q-22 -30 -46 -39t-47 -1t-46 27t-41 43q2 108 2 258t-3 322t-6 354t-7 354t-6 321t-2 257z" />
<glyph unicode="i" horiz-adv-x="420" d="M66 1334q0 50 22 79t76 29q20 0 40 -10t36 -26t27 -37t11 -41q0 -44 -26 -79t-72 -35t-80 37t-34 83zM126 1050q14 36 42 47q15 6 31 6q13 0 26 -4q29 -9 56 -34t41 -59q16 -224 25 -450t19 -450q0 -38 -24 -71t-66 -33q-28 0 -50 13t-37 34t-24 46t-9 49q15 157 15 313 q0 71 -3 142q-10 227 -42 451z" />
<glyph unicode="j" horiz-adv-x="466" d="M-164 -238q24 58 58 67q13 4 26 4q20 0 38 -9q30 -14 47 -38t5 -34q-2 -17 -2 -39q0 -28 3 -65q5 -66 20 -125t41 -95q16 -22 36 -22q12 0 26 8q18 0 34 27t29 68t23 91t17 96t11 82t4 50q2 74 2 175v212t-2 226t-4 220t-5 193t-7 146q-12 34 11 53t57 23q10 1 19 1 q24 0 47 -7q32 -10 42 -34q-6 -3 -6 -55v-29q2 -80 8 -208t10 -290q2 -81 2 -163.5t-2 -167.5q-4 -169 -19 -332t-49 -291t-92 -209t-144 -87q-68 4 -112 33t-72 73t-42 101t-22 118t-16 121t-20 112zM238 1265q-2 12 -2 23q0 26 10 48q14 32 52 36q18 7 33 7q26 0 44 -20 q29 -31 36 -74q2 -13 2 -26q0 -29 -11 -56q-16 -39 -60 -39q-46 0 -72 31t-32 70z" />
<glyph unicode="k" horiz-adv-x="892" d="M78 636q-3 15 -3 30q0 20 5 40q8 36 21 74q11 33 11 66v10l-8 952v8q2 28 24 39q19 9 37 9h7q48 -4 72 -14t34 -29t11 -48t3 -67q0 -12 -1 -71t-2 -142t-3 -179t-3 -180t-2 -143v-34q0 -29 1 -37q20 14 47 46t57 72t63 83t66 77t65 56q29 20 57 20h5q34 -4 58 -24t20 -56 q-4 -48 -33 -94t-70 -90t-89 -89t-90 -93t-74 -100t-40 -110q14 -20 48 -57t77 -83t95 -98t103 -99t99 -85t86 -60q30 -22 36 -48q2 -9 2 -17q0 -16 -8 -31q-12 -22 -39 -36t-59 -14q-52 10 -107 59t-112 111t-114 123t-109 95q-2 -34 -3 -67q0 -50 6 -100q6 -57 6 -118 q0 -27 -1 -55q-8 -36 -34 -54t-57 -18t-60 16t-43 48q16 126 19 271v23q0 132 -31 248q-40 30 -46 64z" />
<glyph unicode="l" horiz-adv-x="400" d="M130 1726q6 44 27 73t48 37q8 2 17 2q18 0 36 -12q26 -18 40 -66q2 -40 4 -130t5 -212t5 -265t4 -288t5 -282t5 -247t3 -184t3 -92v-10q0 -30 -26 -42q-24 -11 -54 -11h-5q-33 1 -61 14t-34 33z" />
<glyph unicode="m" horiz-adv-x="1440" d="M82 1346q37 26 69 26h4q33 -2 58 -25t43 -61t29 -79t16 -81t5 -66q28 80 95 120q64 38 133 38h7q73 -2 135 -45t80 -127q36 36 84 76t103 65t114 28q4 0 9 1q55 0 110 -36q60 -34 100 -104t65 -162t37 -198t15 -210q1 -45 1 -87q0 -57 -2 -112q-4 -95 -8 -164t-9 -107 t-3 -28q-6 -28 -31 -37q-17 -6 -37 -6q-9 0 -17 1q-29 4 -53 20t-26 38q16 206 16 371q0 102 -6 188q-16 227 -65 339q-46 105 -114 105q-5 0 -10 -1q-75 -8 -167 -146q-16 -24 -27 -64t-23 -83t-25 -81t-33 -56t-50 -9t-72 59q8 50 8 116t-10 127t-29 107t-50 57 q-7 3 -15 3q-25 0 -57 -27q-41 -35 -95 -137q-30 -82 -46 -193t-21 -228q-3 -65 -3 -129q0 -51 2 -102q4 -114 12 -202q-12 -36 -43 -49q-20 -8 -41 -8q-11 0 -22 2q-32 7 -58 32t-30 61q-2 70 -2 137q0 101 4 195q6 158 7 310v23q0 140 -11 283q-12 154 -50 322z" />
<glyph unicode="n" horiz-adv-x="1040" d="M56 1116q26 48 52 60t47 7t37 -19t26 -20q2 -12 2 -38t-1 -54t-2 -54t1 -38q32 78 87 134t122 88t143 39q18 2 37 2l115 -17q92 -52 147 -121t83 -155t36 -188t8 -217t-2 -242v-51q0 -103 6 -212q-18 -24 -45 -35q-21 -9 -42 -9q-6 0 -11 1q-26 3 -48 21t-34 52 q2 44 9 132t10 195q1 36 1 72q0 73 -4 148q-6 113 -27 209t-62 164t-109 82q-100 -2 -163 -39t-101 -98t-53 -140t-17 -166v-43q0 -65 4 -131q6 -87 12 -164t7 -139v-9q0 -55 -11 -89q-22 -24 -50 -34t-52 -6t-39 18t-15 38z" />
<glyph unicode="o" horiz-adv-x="1000" d="M102 638q4 94 33 190t84 176t137 136t192 70q28 6 56 6q50 0 98 -19q74 -29 130 -100t87 -183q29 -105 29 -240v-18v-17q0 -109 -23 -209q-25 -108 -76 -195t-129 -145t-180 -78q-43 -10 -81 -10t-71 10q-66 20 -115 68t-83 116t-54 144t-28 153q-6 62 -6 117v28z M266 598q0 -46 11 -125t39 -154t74 -126q40 -44 97 -44q9 0 19 1q86 14 142 63t90 122t48 164t14 191q-4 40 -8 98t-22 112t-60 95t-124 51q-106 0 -169 -44t-97 -111t-44 -146t-10 -147z" />
<glyph unicode="p" horiz-adv-x="868" d="M70 1198q0 26 24 34q14 5 29 5q12 0 24 -3q29 -6 55 -22t32 -38l26 -266q98 142 188 192q65 36 122 36q22 0 42 -5q74 -19 129 -95t84 -182t29 -231t-36 -245q-36 -96 -87 -162t-114 -107t-140 -58t-167 -17v-740q0 -36 -27 -53q-24 -15 -53 -15h-7q-33 2 -62 23t-31 61 q8 196 14 419q4 149 4 305q0 78 -1 158q-3 240 -21 494t-56 512zM315 442q-1 -26 -1 -50q0 -47 4 -84q6 -56 16 -66q42 -9 78 -9q66 0 115 28q77 43 120 120t57 174q8 52 8 101q0 42 -6 81q-12 85 -45 143t-81 58q-72 0 -122 -48t-81 -122t-45 -161t-17 -165z" />
<glyph unicode="q" horiz-adv-x="978" d="M88 430q-1 32 -1 62q0 147 31 273q38 153 107 256t161 144q45 20 93 20t99 -21q28 58 65 90t70 35h6q29 0 49 -26q20 -27 20 -81v-10q-2 -100 -12 -199t-23 -205t-23 -220t-12 -242q70 -40 121 -121t80 -182t35 -211q1 -24 1 -46q0 -85 -17 -160q-22 -96 -72 -169 t-132 -99q-64 8 -100 63t-55 134t-24 172t-6 180t-1 157t-10 102q-50 -84 -103 -116q-43 -26 -86 -26q-9 0 -18 1q-51 7 -97 48t-80 103t-52 139q-15 63 -15 127q0 14 1 28zM248 442q0 -138 24 -196t59 -63q5 -1 9 -1q31 0 66 29q40 33 74 78t55 90q18 38 18 57q0 3 -1 6 q-2 2 0 42t5 99t7 128t6 127t4 97t0 39q-47 17 -86 17q-24 0 -44 -6q-54 -17 -90 -62t-57 -110t-32 -133t-14 -132t-3 -106zM714 -227q0 -61 4 -109t13 -79t23 -33q24 0 38 32t18 83q2 23 2 48q0 31 -3 66q-5 63 -17 125t-31 117t-43 89q0 -40 -1 -97t-2 -119t-1 -123z" />
<glyph unicode="r" horiz-adv-x="840" d="M70 1146q4 34 24 42q13 5 30 5q8 0 18 -1q56 -4 81 -34t35 -74t11 -94t7 -96q20 48 75 100t118 93t122 66q51 22 80 22q5 0 9 -1q82 -4 106 -53q6 -13 6 -28q0 -42 -50 -101q-14 1 -27 1q-76 0 -137 -29q-72 -34 -125 -98t-88 -152t-53 -187t-20 -205v-26q0 -92 12 -180 q-6 -66 -34 -95q-25 -26 -55 -26h-6q-33 3 -62 36t-37 95q16 144 18 267v49q0 98 -6 194q-8 120 -22 243t-30 267z" />
<glyph unicode="s" horiz-adv-x="702" d="M58 502q-1 4 -1 8q0 18 14 34q17 20 41 29t51 1t45 -42q6 -52 29 -118t61 -118t87 -80q26 -15 54 -15q24 0 49 11q22 10 26 23t-8 41t-41 78t-73 134t-103 208t-129 300q-4 27 -4 50q0 47 16 82q24 52 69 79t103 30h16l100 -16q58 -19 107 -58t75 -97q0 -24 -10 -46 t-26 -38t-37 -25t-41 -7q-14 42 -51 61t-75 19t-65 -17t-21 -47q100 -188 171 -326t116 -235t63 -160q13 -45 13 -79q0 -13 -2 -25q-7 -41 -40 -65t-89 -44q-29 -10 -66 -10q-27 0 -57 5q-73 13 -145 67t-133 153t-89 255z" />
<glyph unicode="t" horiz-adv-x="718" d="M7 1059q11 23 67 27q22 2 57 8t74 12t79 13t72 15v61t-2 105t-4 125t-4 120t-4 92t-2 39q4 26 37 37q23 8 46 8q11 0 22 -2q35 -5 57 -24t4 -49l22 -482q36 0 71 9t71 9t73 -15t37 -57q0 -54 -27 -74t-67 -26t-84 -7t-78 -19q0 -142 3 -253t8 -218t9 -221t8 -264 q2 -32 -23 -44q-19 -9 -40 -9q-7 0 -15 1q-30 4 -54 21t-24 43q-2 40 -4 115t-4 167t-5 191t-8 188t-11 158t-14 101q-23 2 -41 2q-14 0 -26 -1q-27 -3 -50 -7t-47 -9t-60 -7q-34 0 -67 22t-48 49q-9 16 -9 30q0 10 5 20z" />
<glyph unicode="u" horiz-adv-x="948" d="M82 1104q20 46 42 63t43 15t42 -19t37 -39v-61q0 -163 9 -283q11 -142 32 -239t49 -156t63 -93t72 -51t77 -29q76 10 118 56t62 117t23 161q2 68 2 139v48q-1 97 -1 196t12 187q6 38 29 58q22 19 46 19h2q25 -1 46 -24t23 -71q4 -98 7 -217q1 -40 1 -80q0 -80 -4 -161 q-6 -122 -26 -236t-63 -202t-114 -143t-177 -55q-118 6 -200 80t-135 213t-81 342t-36 465z" />
<glyph unicode="v" horiz-adv-x="960" d="M77 1147q-2 7 -2 11q0 10 17 -4q0 30 19 41q17 10 41 10h4q26 -1 51 -15t35 -34l356 -810q4 2 19 51t34 127t41 173t39 188t26 171q6 54 6 92q0 17 -1 30q30 18 64 24t61 -1t43 -31q13 -19 13 -50q0 -8 -1 -16q-26 -148 -64 -271t-72 -243t-55 -247q-15 -92 -15 -199 q0 -41 2 -84q-24 -32 -51 -45q-20 -9 -39 -9l-15 1q-27 5 -51 26t-40 57q-56 156 -118 302t-120 271t-107 225t-80 166t-40 93z" />
<glyph unicode="w" horiz-adv-x="1260" d="M64 1180l-3 12l9 -34q0 30 24 47t56 15t64 -24t50 -68q4 -20 11 -52t21 -100t37 -181t59 -295l16 -30q2 4 8 15t6 15q8 20 25 74t36 113t36 112t23 75q-2 12 -2 24q0 33 17 59q23 35 58 46q15 5 30 5q21 0 44 -9q39 -15 63 -65l180 -518q14 112 28 210t26 189t23 180 t17 185q10 28 38 44t58 16t56 -15t30 -51q-52 -256 -82 -537t-62 -591q8 -10 -14 -28t-55 -27q-16 -5 -33 -5l-33 5q-33 9 -45 51l-206 622q-28 -34 -57 -108t-57 -158t-53 -164t-43 -124q-12 -50 -40 -77t-61 -33q-10 -2 -21 -2q-22 0 -43 9q-31 13 -45 43q-52 358 -93 596 t-67 370t-34 164z" />
<glyph unicode="x" horiz-adv-x="902" d="M84 64l310 566q2 2 2 4t2 4q-24 78 -55 143t-63 125t-62 118t-50 122q18 40 49 50t61 2t51 -25t21 -29q10 -24 28 -63t40 -80t44 -77t40 -56q38 36 68 93l60 114t64 101t82 50q14 -4 33 -17t33 -31t20 -39t-4 -39q-96 -164 -149 -255t-79 -134t-31 -53t-5 -12 q-2 -6 -1 -13t8 -27t24 -58t48 -104t79 -166t120 -246q-2 -56 -39 -76q-22 -12 -50 -12q-20 0 -43 6q-20 4 -42 36t-46 79t-48 103t-47 108t-43 93t-36 61l-222 -428q-18 -30 -51 -40t-62 -1t-48 35q-13 18 -13 45q0 11 2 23z" />
<glyph unicode="y" horiz-adv-x="924" d="M58 1104q20 30 54 32h5q32 0 64 -21q35 -23 45 -61q42 -54 91 -138t102 -173t108 -168t107 -123q12 26 23 82t19 129t15 154t12 156t11 137t12 94q10 8 36 11q5 1 10 1q22 0 44 -10q28 -12 50 -44t26 -92l-228 -1608q-8 -46 -40 -61q-27 -13 -55 -13q-6 0 -12 1 q-35 3 -62 20t-25 39l134 808q-10 2 -22 10t-33 34t-57 74t-93 130t-140 205t-199 299q-12 35 -12 59q0 23 10 37z" />
<glyph unicode="z" horiz-adv-x="954" d="M75 1118q-1 7 -1 14q0 14 4 28q6 20 28 30q92 6 168 8t153 3t163 3t200 6q52 0 88 -16t36 -74q-20 -52 -76 -136t-129 -183t-150 -203t-140 -196t-100 -163q-29 -56 -30 -86q0 -8 3 -15l594 34q26 -8 40 -34t14 -56t-16 -57t-54 -37q-67 21 -158 21h-8q-96 -1 -195 -8 t-190 -11q-20 -1 -39 -1q-66 0 -114 11q-62 14 -84 55q-8 14 -8 33q0 37 28 92l542 850q0 6 -34 8t-85 2t-114 -2q-42 -1 -83 -1h-40q-60 1 -110 4t-76 11q-8 6 -16 25t-11 41z" />
<glyph unicode="{" horiz-adv-x="752" d="M88 1028q-10 32 8 45t48 16t63 3t49 6h14q16 28 19 80t-2 117t-16 136t-21 138t-18 122t-8 89q-6 68 26 127t84 93t115 36t121 -46q26 0 36 -8t10 -23t-8 -39t-22 -56q-82 8 -127 -17t-62 -72t-14 -113t17 -141t31 -154t28 -152t8 -136t-31 -107q18 -62 16 -150t-11 -181 t-19 -181t-10 -150q0 -50 8 -90t28 -62t55 -24t91 24q36 0 70 -26t34 -64q-6 -22 -42 -49t-88 -46t-110 -21t-108 23t-83 86t-33 171q0 58 2 143t6 175t11 176t17 148q-22 16 -53 30t-59 31t-49 39t-21 54z" />
<glyph unicode="|" horiz-adv-x="432" d="M158 68l8 1840q18 44 44 55t50 2t40 -32t16 -47l22 -1848q-56 -56 -95 -56t-85 86z" />
<glyph unicode="}" horiz-adv-x="736" d="M60 68q0 38 34 64t70 26q56 -26 91 -24t55 24t28 62t8 90q0 62 -10 150t-19 181t-11 181t16 150q-28 44 -31 107t8 136t28 152t31 154t17 141t-14 113t-62 72t-127 17q-14 32 -23 56t-9 39t11 23t37 8q56 48 120 46t116 -36t84 -93t26 -127q0 -34 -8 -89t-18 -122 t-21 -138t-16 -136t-2 -117t19 -80h14q16 -6 48 -6t62 -3t49 -16t9 -45q0 -32 -21 -54t-49 -39t-60 -31t-52 -30q10 -62 17 -148t11 -176t6 -175t2 -143q0 -110 -33 -171t-83 -86t-108 -23t-110 21t-88 46t-42 49z" />
<glyph unicode="~" horiz-adv-x="960" d="M84 932q20 38 47 78t63 73t79 54t95 21t87 -25t63 -56t53 -56t55 -25q40 0 62 15t38 39t32 52t44 56q-2 20 20 25t47 -4t42 -29t9 -50q2 -12 -9 -42t-37 -66t-68 -71t-98 -57q-58 -18 -109 -2t-95 46t-80 60t-64 40q-46 2 -69 -17t-39 -45t-30 -51t-38 -33q-36 0 -66 15 t-34 55z" />
<glyph unicode="&#xa1;" horiz-adv-x="420" d="M108 28q2 -32 27 -46t53 -11t50 20t20 45q12 82 17 190t7 228t3 247t2 247t5 227t12 189q-10 32 -37 45t-57 11t-55 -17t-31 -39q2 -130 0 -308t-6 -366t-7 -363t-3 -299zM108 1740q20 -28 61 -41t83 -7t73 32t31 76q-10 70 -57 97t-96 16t-82 -56t-13 -117z" />
<glyph unicode="&#xa3;" horiz-adv-x="1118" d="M39 83q-13 49 10 93t83 71t162 7q10 14 15 59t7 104t0 126t-4 126t-3 105t-1 62q-24 14 -56 20t-59 17t-46 33t-19 66q0 8 10 19t23 20t27 15t22 6q22 0 40 -3t44 -13q-10 208 -3 359t25 256t46 169t61 99t69 48t72 15q68 -2 116 -33t79 -79t51 -106t32 -114 q0 -30 -11 -60t-51 -30q-44 0 -67 18t-35 45t-17 59t-14 59t-26 45t-51 18q-54 -56 -72 -151t-21 -205t1 -219t-4 -193q26 8 61 12t67 -2t55 -25t27 -59q0 -36 -21 -53t-51 -24t-64 -9t-60 -4v-46v-99t1 -128t1 -135t-1 -121t-1 -83q52 -32 111 -46t119 -14t120 12t114 32 q32 12 57 3t37 -33t8 -59t-28 -75q-12 -34 -61 -52t-118 -23t-145 1t-143 21t-112 37t-51 48q-102 -80 -178 -94t-121 11t-58 74z" />
<glyph unicode="&#xa5;" horiz-adv-x="1162" d="M59 1909q11 25 37 35t59 0t63 -46q16 -18 53 -59t85 -94t101 -113t100 -112t83 -91t50 -51l234 550q26 42 57 52t56 0t40 -34t9 -48l-278 -724l4 -234q64 2 115 6t73 14q38 -6 62 -36t28 -64t-15 -62t-65 -32q-54 4 -102 5t-94 -1l4 -152q56 4 100 7t66 13q38 -6 62 -36 t28 -64t-15 -62t-65 -32q-48 4 -91 5t-83 -1l8 -402q-8 -20 -32 -28t-50 -4t-47 19t-21 43l-12 366q-60 -4 -108 -6t-82 2q-40 -8 -60 3t-25 34t2 55t21 64q8 6 31 10t56 6t74 4t85 2l-4 146q-52 -4 -92 -5t-72 3q-40 -8 -60 3t-25 34t2 55t21 64q16 12 78 15t144 5l-8 248 l-580 668q-16 32 -5 57z" />
<glyph unicode="&#xa8;" horiz-adv-x="816" d="M132 1412q20 28 61 41t83 7t73 -32t31 -76q-10 -70 -57 -97t-96 -16t-82 56t-13 117zM494 1412q20 28 61 41t83 7t73 -32t31 -76q-10 -70 -57 -97t-96 -16t-82 56t-13 117z" />
<glyph unicode="&#xad;" d="M130 622q0 34 46 66q26 -4 94 -8t145 -4t149 3t108 11q38 12 75 -8t57 -53t13 -68t-57 -53h-464q-36 -6 -76 9t-65 43t-25 62z" />
<glyph unicode="&#xaf;" d="M84 1358q0 34 46 66q26 -4 94 -8t145 -4t149 3t108 11q38 12 75 -8t57 -53t13 -68t-57 -53h-464q-36 -6 -76 9t-65 43t-25 62z" />
<glyph unicode="&#xb4;" horiz-adv-x="414" d="M78 1257q-6 23 0 53l156 144q22 26 52 27t52 -15t25 -44t-29 -60l-144 -126q-26 -20 -49 -22t-40 9t-23 34z" />
<glyph unicode="&#xb8;" horiz-adv-x="586" d="M146 -342q-4 22 12 42t40 28t50 -1t44 -43q-8 -46 1 -73t27 -34t42 10t46 63q30 62 28 92t-33 45t-87 25t-134 34l-2 194q0 24 17 43t40 24t46 -12t33 -67l-14 -80q114 -10 178 -42t84 -86t0 -130t-74 -172q-20 -36 -66 -66t-100 -26t-103 55t-75 177z" />
<glyph unicode="&#xbf;" horiz-adv-x="976" d="M46 182q-20 116 11 222t90 204t133 185t140 165l-40 452q14 50 42 76t59 29t60 -16t47 -57q-2 -46 2 -107t11 -124t13 -122t6 -99q6 -54 -12 -91t-51 -71t-78 -74t-91 -101t-89 -150t-75 -225q-16 -64 8 -88t72 -20t111 31t127 68t120 91t88 96q36 18 65 1t41 -50t3 -74 t-49 -71q-40 -56 -107 -109t-147 -92t-164 -59t-156 -9t-123 55t-67 134zM334 1784q-4 70 34 104t86 35t89 -30t43 -95q-14 -48 -51 -75t-78 -30t-76 19t-47 72z" />
<glyph unicode="&#xc0;" horiz-adv-x="1142" d="M100 104q40 292 69 516t50 397t35 303t24 232t17 186t15 164q-10 34 9 54t51 28t73 4t76 -18t58 -39t23 -57l530 -1790q0 -34 -24 -60t-55 -39t-61 -11t-44 26l-232 854q-32 12 -77 16t-92 -3t-90 -25t-71 -48q-10 -172 -34 -340t-56 -364q6 -48 -21 -67t-62 -16t-69 29 t-42 68zM279 2350q3 28 25 44t52 15t52 -27l156 -144q6 -30 0 -53t-23 -34t-40 -9t-49 22l-144 126q-32 32 -29 60zM398 1048q0 -24 33 -31t76 -5t86 10t61 12l-148 632q-24 -60 -41 -140t-29 -165t-21 -167t-17 -146z" />
<glyph unicode="&#xc1;" horiz-adv-x="1142" d="M100 104q40 292 69 516t50 397t35 303t24 232t17 186t15 164q-10 34 9 54t51 28t73 4t76 -18t58 -39t23 -57l530 -1790q0 -34 -24 -60t-55 -39t-61 -11t-44 26l-232 854q-32 12 -77 16t-92 -3t-90 -25t-71 -48q-10 -172 -34 -340t-56 -364q6 -48 -21 -67t-62 -16t-69 29 t-42 68zM352 2107q-6 23 0 53l156 144q22 26 52 27t52 -15t25 -44t-29 -60l-144 -126q-26 -20 -49 -22t-40 9t-23 34zM398 1048q0 -24 33 -31t76 -5t86 10t61 12l-148 632q-24 -60 -41 -140t-29 -165t-21 -167t-17 -146z" />
<glyph unicode="&#xc2;" horiz-adv-x="1142" d="M100 104q40 292 69 516t50 397t35 303t24 232t17 186t15 164q-10 34 9 54t51 28t73 4t76 -18t58 -39t23 -57l530 -1790q0 -34 -24 -60t-55 -39t-61 -11t-44 26l-232 854q-32 12 -77 16t-92 -3t-90 -25t-71 -48q-10 -172 -34 -340t-56 -364q6 -48 -21 -67t-62 -16t-69 29 t-42 68zM180 2166v8l138 262q18 34 46 49t60 12t64 -25t58 -62l112 -234q-6 -36 -27 -55t-48 -22t-52 8t-37 39l-66 140l-98 -188q-12 -20 -35 -19t-47 13t-44 32t-24 42zM398 1048q0 -24 33 -31t76 -5t86 10t61 12l-148 632q-24 -60 -41 -140t-29 -165t-21 -167t-17 -146z " />
<glyph unicode="&#xc3;" horiz-adv-x="1142" d="M68 2094q20 38 47 78t63 73t79 54t95 21t87 -25t63 -56t53 -56t55 -25q40 0 62 15t38 39t32 52t44 56q-2 20 20 25t47 -4t42 -29t9 -50q2 -12 -9 -42t-37 -66t-68 -71t-98 -57q-58 -18 -109 -2t-95 46t-80 60t-64 40q-46 2 -69 -17t-39 -45t-30 -51t-38 -33q-36 0 -66 15 t-34 55zM100 104q40 292 69 516t50 397t35 303t24 232t17 186t15 164q-10 34 9 54t51 28t73 4t76 -18t58 -39t23 -57l530 -1790q0 -34 -24 -60t-55 -39t-61 -11t-44 26l-232 854q-32 12 -77 16t-92 -3t-90 -25t-71 -48q-10 -172 -34 -340t-56 -364q6 -48 -21 -67t-62 -16 t-69 29t-42 68zM398 1048q0 -24 33 -31t76 -5t86 10t61 12l-148 632q-24 -60 -41 -140t-29 -165t-21 -167t-17 -146z" />
<glyph unicode="&#xc4;" horiz-adv-x="1142" d="M100 104q40 292 69 516t50 397t35 303t24 232t17 186t15 164q-10 34 9 54t51 28t73 4t76 -18t58 -39t23 -57l530 -1790q0 -34 -24 -60t-55 -39t-61 -11t-44 26l-232 854q-32 12 -77 16t-92 -3t-90 -25t-71 -48q-10 -172 -34 -340t-56 -364q6 -48 -21 -67t-62 -16t-69 29 t-42 68zM156 2264q20 28 61 41t83 7t73 -32t31 -76q-10 -70 -57 -97t-96 -16t-82 56t-13 117zM398 1048q0 -24 33 -31t76 -5t86 10t61 12l-148 632q-24 -60 -41 -140t-29 -165t-21 -167t-17 -146zM518 2264q20 28 61 41t83 7t73 -32t31 -76q-10 -70 -57 -97t-96 -16t-82 56 t-13 117z" />
<glyph unicode="&#xc5;" horiz-adv-x="1142" d="M100 104q40 292 69 516t50 397t35 303t24 232t17 186t15 164q-10 34 9 54t51 28t73 4t76 -18t58 -39t23 -57l530 -1790q0 -34 -24 -60t-55 -39t-61 -11t-44 26l-232 854q-32 12 -77 16t-92 -3t-90 -25t-71 -48q-10 -172 -34 -340t-56 -364q6 -48 -21 -67t-62 -16t-69 29 t-42 68zM198 2156q-14 66 12 114t73 76t108 36t119 -6t106 -51t68 -99q10 -66 -21 -112t-83 -71t-115 -30t-121 9t-99 48t-47 86zM332 2156q12 -10 47 -19t72 -6t65 21t24 62q-2 18 -21 29t-45 13t-55 -3t-52 -18t-34 -33t-1 -46zM398 1048q0 -24 33 -31t76 -5t86 10t61 12 l-148 632q-24 -60 -41 -140t-29 -165t-21 -167t-17 -146z" />
<glyph unicode="&#xc6;" horiz-adv-x="1352" d="M100 104q40 292 69 516t50 397t35 303t24 232t17 186t15 164q-8 30 6 49t41 28t62 8t69 -9v-2q24 2 72 3t131 1t205 -1t294 -1q26 0 38 -22t11 -49t-13 -51t-36 -28q-52 -2 -119 -5t-137 -6t-139 -5t-123 0q0 -44 -3 -130t-3 -178t7 -174t25 -120q8 -2 45 -5t79 -6t79 -6 t45 -5q26 -10 41 -29t18 -39t-8 -35t-37 -17q-18 0 -56 -3t-81 -6t-83 -4t-58 5q-16 -94 -16 -203t7 -226t15 -240t8 -245l566 -12q10 -4 21 -20t16 -36t-3 -39t-34 -29q-12 -12 -73 -21t-145 -13t-180 -2t-178 8t-138 19t-62 31q12 38 16 119t2 187t-5 231t-5 253 q-34 -4 -67 -10t-43 -18q-10 -172 -34 -340t-56 -364q6 -48 -21 -67t-62 -16t-69 29t-42 68zM398 1048q0 -14 29 -25t65 -21q-6 126 -9 252t-7 264q-38 -114 -50 -233t-28 -237z" />
<glyph unicode="&#xc7;" horiz-adv-x="1140" d="M108 962q-6 178 25 350t89 314t137 240t171 127t191 -25t195 -214q10 -36 5 -69t-20 -55t-37 -28t-48 12q-90 126 -164 161t-133 1t-103 -123t-73 -209t-44 -259t-15 -273q0 -46 1 -120t9 -157t26 -167t52 -152t87 -110t131 -42q80 0 133 36t86 91t53 120t36 121t33 96 t45 46q18 2 36 -5t34 -20t26 -30t10 -33q8 -68 -5 -146t-44 -152t-81 -139t-115 -110t-144 -63t-171 4q-158 60 -242 165t-122 238t-44 282t-6 297zM448 -382q-4 22 12 42t40 28t50 -1t44 -43q-8 -46 1 -73t27 -34t42 10t46 63q30 62 28 92t-33 45t-87 25t-134 34l-2 194 q0 24 17 43t40 24t46 -12t33 -67l-14 -80q114 -10 178 -42t84 -86t0 -130t-74 -172q-20 -36 -66 -66t-100 -26t-103 55t-75 177z" />
<glyph unicode="&#xc8;" horiz-adv-x="972" d="M112 86q18 54 27 161t12 251t0 319t-9 364t-13 384t-13 383q0 8 29 12t110 4t223 -1t368 -1q26 0 38 -22t11 -49t-13 -51t-36 -28q-52 -2 -119 -5t-137 -6t-139 -5t-123 0q0 -44 -3 -130t-3 -178t7 -174t25 -120q8 -2 45 -5t79 -6t79 -6t45 -5q26 -10 41 -29t18 -39 t-8 -35t-37 -17q-18 0 -56 -3t-81 -6t-83 -4t-58 5q-16 -94 -21 -192t-4 -202t5 -216t4 -234l566 -12q10 -4 21 -20t16 -36t-3 -39t-34 -29q-12 -12 -73 -21t-145 -13t-180 -2t-178 8t-138 19t-62 31zM383 2196q3 28 25 44t52 15t52 -27l156 -144q6 -30 0 -53t-23 -34 t-40 -9t-49 22l-144 126q-32 32 -29 60z" />
<glyph unicode="&#xc9;" horiz-adv-x="972" d="M112 86q18 54 27 161t12 251t0 319t-9 364t-13 384t-13 383q0 8 29 12t110 4t223 -1t368 -1q26 0 38 -22t11 -49t-13 -51t-36 -28q-52 -2 -119 -5t-137 -6t-139 -5t-123 0q0 -44 -3 -130t-3 -178t7 -174t25 -120q8 -2 45 -5t79 -6t79 -6t45 -5q26 -10 41 -29t18 -39 t-8 -35t-37 -17q-18 0 -56 -3t-81 -6t-83 -4t-58 5q-16 -94 -21 -192t-4 -202t5 -216t4 -234l566 -12q10 -4 21 -20t16 -36t-3 -39t-34 -29q-12 -12 -73 -21t-145 -13t-180 -2t-178 8t-138 19t-62 31zM344 2031q-6 23 0 53l156 144q22 26 52 27t52 -15t25 -44t-29 -60 l-144 -126q-26 -20 -49 -22t-40 9t-23 34z" />
<glyph unicode="&#xca;" horiz-adv-x="972" d="M112 86q18 54 27 161t12 251t0 319t-9 364t-13 384t-13 383q0 8 29 12t110 4t223 -1t368 -1q26 0 38 -22t11 -49t-13 -51t-36 -28q-52 -2 -119 -5t-137 -6t-139 -5t-123 0q0 -44 -3 -130t-3 -178t7 -174t25 -120q8 -2 45 -5t79 -6t79 -6t45 -5q26 -10 41 -29t18 -39 t-8 -35t-37 -17q-18 0 -56 -3t-81 -6t-83 -4t-58 5q-16 -94 -21 -192t-4 -202t5 -216t4 -234l566 -12q10 -4 21 -20t16 -36t-3 -39t-34 -29q-12 -12 -73 -21t-145 -13t-180 -2t-178 8t-138 19t-62 31zM266 2098v8l138 262q18 34 46 49t60 12t64 -25t58 -62l112 -234 q-6 -36 -27 -55t-48 -22t-52 8t-37 39l-66 140l-98 -188q-12 -20 -35 -19t-47 13t-44 32t-24 42z" />
<glyph unicode="&#xcb;" horiz-adv-x="972" d="M112 86q18 54 27 161t12 251t0 319t-9 364t-13 384t-13 383q0 8 29 12t110 4t223 -1t368 -1q26 0 38 -22t11 -49t-13 -51t-36 -28q-52 -2 -119 -5t-137 -6t-139 -5t-123 0q0 -44 -3 -130t-3 -178t7 -174t25 -120q8 -2 45 -5t79 -6t79 -6t45 -5q26 -10 41 -29t18 -39 t-8 -35t-37 -17q-18 0 -56 -3t-81 -6t-83 -4t-58 5q-16 -94 -21 -192t-4 -202t5 -216t4 -234l566 -12q10 -4 21 -20t16 -36t-3 -39t-34 -29q-12 -12 -73 -21t-145 -13t-180 -2t-178 8t-138 19t-62 31zM226 2186q20 28 61 41t83 7t73 -32t31 -76q-10 -70 -57 -97t-96 -16 t-82 56t-13 117zM588 2186q20 28 61 41t83 7t73 -32t31 -76q-10 -70 -57 -97t-96 -16t-82 56t-13 117z" />
<glyph unicode="&#xcc;" horiz-adv-x="422" d="M84 1918q22 30 52 31t57 -16t47 -46t24 -59q28 -426 59 -866t31 -872q12 -42 -8 -63t-50 -24t-62 12t-46 45q-8 46 -13 99t-10 137t-11 209t-15 317t-22 460t-33 636zM107 2196q3 28 25 44t52 15t52 -27l156 -144q6 -30 0 -53t-23 -34t-40 -9t-49 22l-144 126 q-32 32 -29 60z" />
<glyph unicode="&#xcd;" horiz-adv-x="422" d="M72 2031q-6 23 0 53l156 144q22 26 52 27t52 -15t25 -44t-29 -60l-144 -126q-26 -20 -49 -22t-40 9t-23 34zM84 1918q22 30 52 31t57 -16t47 -46t24 -59q28 -426 59 -866t31 -872q12 -42 -8 -63t-50 -24t-62 12t-46 45q-8 46 -13 99t-10 137t-11 209t-15 317t-22 460 t-33 636z" />
<glyph unicode="&#xce;" horiz-adv-x="422" d="M-6 2098v8l138 262q18 34 46 49t60 12t64 -25t58 -62l112 -234q-6 -36 -27 -55t-48 -22t-52 8t-37 39l-66 140l-98 -188q-12 -20 -35 -19t-47 13t-44 32t-24 42zM84 1918q22 30 52 31t57 -16t47 -46t24 -59q28 -426 59 -866t31 -872q12 -42 -8 -63t-50 -24t-62 12t-46 45 q-8 46 -13 99t-10 137t-11 209t-15 317t-22 460t-33 636z" />
<glyph unicode="&#xcf;" horiz-adv-x="422" d="M-134 2186q20 28 61 41t83 7t73 -32t31 -76q-10 -70 -57 -97t-96 -16t-82 56t-13 117zM84 1918q22 30 52 31t57 -16t47 -46t24 -59q28 -426 59 -866t31 -872q12 -42 -8 -63t-50 -24t-62 12t-46 45q-8 46 -13 99t-10 137t-11 209t-15 317t-22 460t-33 636zM228 2186 q20 28 61 41t83 7t73 -32t31 -76q-10 -70 -57 -97t-96 -16t-82 56t-13 117z" />
<glyph unicode="&#xd0;" horiz-adv-x="1214" d="M-70 872q0 34 46 66q22 -4 68 -7t104 -5q6 136 11 270t9 259t6 237t2 204q-8 44 7 67t40 27t54 -9t49 -38t23 -61t-21 -78q158 112 288 141t230 -8t170 -129t107 -220t41 -282t-26 -314t-97 -318t-170 -293t-245 -237t-324 -152q-8 -42 -41 -59t-68 -11t-59 32t-12 72 q0 142 5 332t13 400h-44q-36 -6 -76 9t-65 43t-25 62zM300 758q0 -148 1 -297t1 -303q158 42 278 133t204 213t135 264t71 285t12 277t-43 239t-94 171t-139 73t-181 -54t-217 -211q-14 -144 -19 -299t-7 -323q54 2 99 5t71 9q38 12 75 -8t57 -53t13 -68t-57 -53h-260z" />
<glyph unicode="&#xd1;" horiz-adv-x="1182" d="M86 1906q0 40 22 60t52 23t60 -10t46 -39q208 -448 338 -740t202 -462t98 -237t26 -65q0 150 -2 344t-3 396t-3 396t-2 344q0 34 19 51t46 20t56 -8t47 -31q8 -112 10 -262t1 -319t-4 -348t-4 -346t2 -315t15 -254q8 -52 -23 -79t-74 -29t-82 20t-45 70l-604 1390 q10 -80 14 -195t5 -247t0 -274t0 -277t3 -255t10 -208q-2 -36 -27 -54t-57 -17t-63 23t-47 64q4 222 -1 458t-12 476t-13 477t-6 459zM180 2084q20 38 47 78t63 73t79 54t95 21t87 -25t63 -56t53 -56t55 -25q40 0 62 15t38 39t32 52t44 56q-2 20 20 25t47 -4t42 -29t9 -50 q2 -12 -9 -42t-37 -66t-68 -71t-98 -57q-58 -18 -109 -2t-95 46t-80 60t-64 40q-46 2 -69 -17t-39 -45t-30 -51t-38 -33q-36 0 -66 15t-34 55z" />
<glyph unicode="&#xd2;" horiz-adv-x="1136" d="M106 1042v219t17 258t57 246t118 183q24 22 66 30t88 6t89 -12t73 -24q106 -38 191 -143t144 -251t92 -320t37 -349t-23 -338t-86 -287t-152 -196t-223 -64q-108 0 -186 57t-132 149t-87 207t-52 230t-25 221t-6 178zM258 1210q0 -114 9 -227t22 -213t29 -180t30 -126 q8 -42 28 -94t50 -98t70 -77t92 -31q80 -10 140 45t101 137t63 177t24 167q12 300 -26 521t-105 362t-149 205t-156 52q-64 -14 -107 -70t-69 -141t-36 -190t-10 -219zM285 2274q3 28 25 44t52 15t52 -27l156 -144q6 -30 0 -53t-23 -34t-40 -9t-49 22l-144 126 q-32 32 -29 60z" />
<glyph unicode="&#xd3;" horiz-adv-x="1136" d="M106 1042v219t17 258t57 246t118 183q24 22 66 30t88 6t89 -12t73 -24q106 -38 191 -143t144 -251t92 -320t37 -349t-23 -338t-86 -287t-152 -196t-223 -64q-108 0 -186 57t-132 149t-87 207t-52 230t-25 221t-6 178zM258 1210q0 -114 9 -227t22 -213t29 -180t30 -126 q8 -42 28 -94t50 -98t70 -77t92 -31q80 -10 140 45t101 137t63 177t24 167q12 300 -26 521t-105 362t-149 205t-156 52q-64 -14 -107 -70t-69 -141t-36 -190t-10 -219zM340 2091q-6 23 0 53l156 144q22 26 52 27t52 -15t25 -44t-29 -60l-144 -126q-26 -20 -49 -22t-40 9 t-23 34z" />
<glyph unicode="&#xd4;" horiz-adv-x="1136" d="M106 1042v219t17 258t57 246t118 183q24 22 66 30t88 6t89 -12t73 -24q106 -38 191 -143t144 -251t92 -320t37 -349t-23 -338t-86 -287t-152 -196t-223 -64q-108 0 -186 57t-132 149t-87 207t-52 230t-25 221t-6 178zM210 2202v8l138 262q18 34 46 49t60 12t64 -25 t58 -62l112 -234q-6 -36 -27 -55t-48 -22t-52 8t-37 39l-66 140l-98 -188q-12 -20 -35 -19t-47 13t-44 32t-24 42zM258 1210q0 -114 9 -227t22 -213t29 -180t30 -126q8 -42 28 -94t50 -98t70 -77t92 -31q80 -10 140 45t101 137t63 177t24 167q12 300 -26 521t-105 362 t-149 205t-156 52q-64 -14 -107 -70t-69 -141t-36 -190t-10 -219z" />
<glyph unicode="&#xd5;" horiz-adv-x="1136" d="M106 1042v219t17 258t57 246t118 183q24 22 66 30t88 6t89 -12t73 -24q106 -38 191 -143t144 -251t92 -320t37 -349t-23 -338t-86 -287t-152 -196t-223 -64q-108 0 -186 57t-132 149t-87 207t-52 230t-25 221t-6 178zM158 2084q20 38 47 78t63 73t79 54t95 21t87 -25 t63 -56t53 -56t55 -25q40 0 62 15t38 39t32 52t44 56q-2 20 20 25t47 -4t42 -29t9 -50q2 -12 -9 -42t-37 -66t-68 -71t-98 -57q-58 -18 -109 -2t-95 46t-80 60t-64 40q-46 2 -69 -17t-39 -45t-30 -51t-38 -33q-36 0 -66 15t-34 55zM258 1210q0 -114 9 -227t22 -213t29 -180 t30 -126q8 -42 28 -94t50 -98t70 -77t92 -31q80 -10 140 45t101 137t63 177t24 167q12 300 -26 521t-105 362t-149 205t-156 52q-64 -14 -107 -70t-69 -141t-36 -190t-10 -219z" />
<glyph unicode="&#xd6;" horiz-adv-x="1136" d="M106 1042v219t17 258t57 246t118 183q24 22 66 30t88 6t89 -12t73 -24q106 -38 191 -143t144 -251t92 -320t37 -349t-23 -338t-86 -287t-152 -196t-223 -64q-108 0 -186 57t-132 149t-87 207t-52 230t-25 221t-6 178zM162 2220q20 28 61 41t83 7t73 -32t31 -76 q-10 -70 -57 -97t-96 -16t-82 56t-13 117zM258 1210q0 -114 9 -227t22 -213t29 -180t30 -126q8 -42 28 -94t50 -98t70 -77t92 -31q80 -10 140 45t101 137t63 177t24 167q12 300 -26 521t-105 362t-149 205t-156 52q-64 -14 -107 -70t-69 -141t-36 -190t-10 -219zM524 2220 q20 28 61 41t83 7t73 -32t31 -76q-10 -70 -57 -97t-96 -16t-82 56t-13 117z" />
<glyph unicode="&#xd8;" horiz-adv-x="1136" d="M42 120q0 2 2 9t14 31t37 73t70 136t114 218t168 319t233 441t310 583q4 20 28 22t51 -11t49 -39t22 -62l-978 -1840q-18 0 -38 12t-38 30t-30 39t-14 39zM106 1042v219t17 258t57 246t118 183q24 22 66 30t88 6t89 -12t73 -24q106 -38 191 -143t144 -251t92 -320 t37 -349t-23 -338t-86 -287t-152 -196t-223 -64q-108 0 -186 57t-132 149t-87 207t-52 230t-25 221t-6 178zM258 1210q0 -114 9 -227t22 -213t29 -180t30 -126q8 -42 28 -94t50 -98t70 -77t92 -31q80 -10 140 45t101 137t63 177t24 167q12 300 -26 521t-105 362t-149 205 t-156 52q-64 -14 -107 -70t-69 -141t-36 -190t-10 -219z" />
<glyph unicode="&#xd9;" horiz-adv-x="1230" d="M110 1924q0 48 28 64t63 11t65 -24t34 -43q6 -106 5 -239t-3 -280t0 -298t13 -292t34 -264t64 -213t104 -139t153 -43q92 24 154 101t102 188t59 248t26 282t3 289t-10 269t-11 221t-3 148q0 42 24 59t56 14t61 -24t41 -53q-12 -190 -9 -406t-1 -428t-24 -407t-74 -343 t-152 -236t-258 -86q-138 0 -232 62t-155 168t-93 248t-45 300t-14 322t2 317t4 284t-11 223zM511 2196q3 28 25 44t52 15t52 -27l156 -144q6 -30 0 -53t-23 -34t-40 -9t-49 22l-144 126q-32 32 -29 60z" />
<glyph unicode="&#xda;" horiz-adv-x="1230" d="M110 1924q0 48 28 64t63 11t65 -24t34 -43q6 -106 5 -239t-3 -280t0 -298t13 -292t34 -264t64 -213t104 -139t153 -43q92 24 154 101t102 188t59 248t26 282t3 289t-10 269t-11 221t-3 148q0 42 24 59t56 14t61 -24t41 -53q-12 -190 -9 -406t-1 -428t-24 -407t-74 -343 t-152 -236t-258 -86q-138 0 -232 62t-155 168t-93 248t-45 300t-14 322t2 317t4 284t-11 223zM472 2031q-6 23 0 53l156 144q22 26 52 27t52 -15t25 -44t-29 -60l-144 -126q-26 -20 -49 -22t-40 9t-23 34z" />
<glyph unicode="&#xdb;" horiz-adv-x="1230" d="M110 1924q0 48 28 64t63 11t65 -24t34 -43q6 -106 5 -239t-3 -280t0 -298t13 -292t34 -264t64 -213t104 -139t153 -43q92 24 154 101t102 188t59 248t26 282t3 289t-10 269t-11 221t-3 148q0 42 24 59t56 14t61 -24t41 -53q-12 -190 -9 -406t-1 -428t-24 -407t-74 -343 t-152 -236t-258 -86q-138 0 -232 62t-155 168t-93 248t-45 300t-14 322t2 317t4 284t-11 223zM396 2098v8l138 262q18 34 46 49t60 12t64 -25t58 -62l112 -234q-6 -36 -27 -55t-48 -22t-52 8t-37 39l-66 140l-98 -188q-12 -20 -35 -19t-47 13t-44 32t-24 42z" />
<glyph unicode="&#xdc;" horiz-adv-x="1230" d="M110 1924q0 48 28 64t63 11t65 -24t34 -43q6 -106 5 -239t-3 -280t0 -298t13 -292t34 -264t64 -213t104 -139t153 -43q92 24 154 101t102 188t59 248t26 282t3 289t-10 269t-11 221t-3 148q0 42 24 59t56 14t61 -24t41 -53q-12 -190 -9 -406t-1 -428t-24 -407t-74 -343 t-152 -236t-258 -86q-138 0 -232 62t-155 168t-93 248t-45 300t-14 322t2 317t4 284t-11 223zM356 2186q20 28 61 41t83 7t73 -32t31 -76q-10 -70 -57 -97t-96 -16t-82 56t-13 117zM718 2186q20 28 61 41t83 7t73 -32t31 -76q-10 -70 -57 -97t-96 -16t-82 56t-13 117z" />
<glyph unicode="&#xdd;" horiz-adv-x="1006" d="M59 1909q11 25 37 35t59 0t63 -46q16 -18 53 -59t85 -94t101 -113t100 -112t83 -91t50 -51l126 562q26 42 57 52t56 0t40 -34t9 -48l-432 -1876q-8 -20 -32 -28t-50 -4t-47 19t-21 43l248 1120l-580 668q-16 32 -5 57zM360 2031q-6 23 0 53l156 144q22 26 52 27t52 -15 t25 -44t-29 -60l-144 -126q-26 -20 -49 -22t-40 9t-23 34z" />
<glyph unicode="&#xde;" horiz-adv-x="846" d="M68 -414v1852q18 34 40 43t43 3t40 -22t33 -30q0 -10 1 -46t3 -84t3 -103t2 -103t2 -84t1 -46q14 18 38 41t56 42t71 31t85 6q92 -10 158 -69t106 -148t53 -197t-2 -214t-57 -200t-113 -155t-169 -79t-226 28l-6 -484q0 -18 -18 -37t-44 -24t-54 11t-46 68zM248 422 q4 -82 28 -143t72 -79q72 -10 132 30t101 109t60 156t11 171t-48 153t-118 103q-58 4 -105 -42t-78 -121t-45 -165t-10 -172z" />
<glyph unicode="&#xdf;" horiz-adv-x="1040" d="M86 1045q4 199 29 386t87 335q38 90 95 138t120 60t126 -9t109 -69t70 -118t12 -156q0 -88 -27 -169t-79 -157q86 -42 151 -120t108 -175t67 -203t28 -200q0 -144 -59 -233t-150 -135t-202 -55t-213 7l-20 174q38 0 86 -3t97 -3t97 10t88 38t69 80t41 138q0 74 -24 163 t-69 166t-108 129t-141 52q-12 0 -21 2t-16 3t-17 1t-24 -6l-46 196q42 10 86 42t81 77t62 96t31 99t-11 88t-65 64q-84 40 -140 5t-89 -125t-47 -227t-15 -300t9 -342t24 -356t30 -340t28 -295q-24 -36 -54 -48t-55 -4t-43 33t-18 65q2 44 -11 162t-29 283t-29 361t-9 395z " />
<glyph unicode="&#xe0;" horiz-adv-x="990" d="M92 360q0 76 19 174t55 199t89 195t121 161t149 96t177 1v120q78 40 126 23t58 -121q10 -250 18 -426t14 -295t10 -190t7 -107t4 -47t1 -13q0 -44 -18 -84t-45 -59t-58 -10t-59 63q-4 42 1 87t8 89t1 88t-18 86q-24 -50 -58 -119t-79 -131t-105 -104t-134 -36 q-72 6 -125 38t-88 81t-53 112t-18 129zM261 458q-13 -104 5 -188t80 -120q60 -10 111 42t91 138t68 194t44 209t19 183t-7 120q-68 16 -136 -34t-125 -136t-97 -195t-53 -213zM373 1534q3 28 25 44t52 15t52 -27l156 -144q6 -30 0 -53t-23 -34t-40 -9t-49 22l-144 126 q-32 32 -29 60z" />
<glyph unicode="&#xe1;" horiz-adv-x="990" d="M92 360q0 76 19 174t55 199t89 195t121 161t149 96t177 1v120q78 40 126 23t58 -121q10 -250 18 -426t14 -295t10 -190t7 -107t4 -47t1 -13q0 -44 -18 -84t-45 -59t-58 -10t-59 63q-4 42 1 87t8 89t1 88t-18 86q-24 -50 -58 -119t-79 -131t-105 -104t-134 -36 q-72 6 -125 38t-88 81t-53 112t-18 129zM261 458q-13 -104 5 -188t80 -120q60 -10 111 42t91 138t68 194t44 209t19 183t-7 120q-68 16 -136 -34t-125 -136t-97 -195t-53 -213zM474 1421q-6 23 0 53l156 144q22 26 52 27t52 -15t25 -44t-29 -60l-144 -126q-26 -20 -49 -22 t-40 9t-23 34z" />
<glyph unicode="&#xe2;" horiz-adv-x="990" d="M92 360q0 76 19 174t55 199t89 195t121 161t149 96t177 1v120q78 40 126 23t58 -121q10 -250 18 -426t14 -295t10 -190t7 -107t4 -47t1 -13q0 -44 -18 -84t-45 -59t-58 -10t-59 63q-4 42 1 87t8 89t1 88t-18 86q-24 -50 -58 -119t-79 -131t-105 -104t-134 -36 q-72 6 -125 38t-88 81t-53 112t-18 129zM261 458q-13 -104 5 -188t80 -120q60 -10 111 42t91 138t68 194t44 209t19 183t-7 120q-68 16 -136 -34t-125 -136t-97 -195t-53 -213zM328 1514v8l138 262q18 34 46 49t60 12t64 -25t58 -62l112 -234q-6 -36 -27 -55t-48 -22t-52 8 t-37 39l-66 140l-98 -188q-12 -20 -35 -19t-47 13t-44 32t-24 42z" />
<glyph unicode="&#xe3;" horiz-adv-x="990" d="M92 360q0 76 19 174t55 199t89 195t121 161t149 96t177 1v120q78 40 126 23t58 -121q10 -250 18 -426t14 -295t10 -190t7 -107t4 -47t1 -13q0 -44 -18 -84t-45 -59t-58 -10t-59 63q-4 42 1 87t8 89t1 88t-18 86q-24 -50 -58 -119t-79 -131t-105 -104t-134 -36 q-72 6 -125 38t-88 81t-53 112t-18 129zM126 1466q20 38 47 78t63 73t79 54t95 21t87 -25t63 -56t53 -56t55 -25q40 0 62 15t38 39t32 52t44 56q-2 20 20 25t47 -4t42 -29t9 -50q2 -12 -9 -42t-37 -66t-68 -71t-98 -57q-58 -18 -109 -2t-95 46t-80 60t-64 40q-46 2 -69 -17 t-39 -45t-30 -51t-38 -33q-36 0 -66 15t-34 55zM261 458q-13 -104 5 -188t80 -120q60 -10 111 42t91 138t68 194t44 209t19 183t-7 120q-68 16 -136 -34t-125 -136t-97 -195t-53 -213z" />
<glyph unicode="&#xe4;" horiz-adv-x="990" d="M92 360q0 76 19 174t55 199t89 195t121 161t149 96t177 1v120q78 40 126 23t58 -121q10 -250 18 -426t14 -295t10 -190t7 -107t4 -47t1 -13q0 -44 -18 -84t-45 -59t-58 -10t-59 63q-4 42 1 87t8 89t1 88t-18 86q-24 -50 -58 -119t-79 -131t-105 -104t-134 -36 q-72 6 -125 38t-88 81t-53 112t-18 129zM261 458q-13 -104 5 -188t80 -120q60 -10 111 42t91 138t68 194t44 209t19 183t-7 120q-68 16 -136 -34t-125 -136t-97 -195t-53 -213zM296 1584q20 28 61 41t83 7t73 -32t31 -76q-10 -70 -57 -97t-96 -16t-82 56t-13 117zM658 1584 q20 28 61 41t83 7t73 -32t31 -76q-10 -70 -57 -97t-96 -16t-82 56t-13 117z" />
<glyph unicode="&#xe5;" horiz-adv-x="990" d="M92 360q0 76 19 174t55 199t89 195t121 161t149 96t177 1v120q78 40 126 23t58 -121q10 -250 18 -426t14 -295t10 -190t7 -107t4 -47t1 -13q0 -44 -18 -84t-45 -59t-58 -10t-59 63q-4 42 1 87t8 89t1 88t-18 86q-24 -50 -58 -119t-79 -131t-105 -104t-134 -36 q-72 6 -125 38t-88 81t-53 112t-18 129zM261 458q-13 -104 5 -188t80 -120q60 -10 111 42t91 138t68 194t44 209t19 183t-7 120q-68 16 -136 -34t-125 -136t-97 -195t-53 -213zM364 1478q-14 66 12 114t73 76t108 36t119 -6t106 -51t68 -99q10 -66 -21 -112t-83 -71 t-115 -30t-121 9t-99 48t-47 86zM498 1478q12 -10 47 -19t72 -6t65 21t24 62q-2 18 -21 29t-45 13t-55 -3t-52 -18t-34 -33t-1 -46z" />
<glyph unicode="&#xe6;" horiz-adv-x="1316" d="M92 360q-6 90 11 195t56 204t97 184t131 138t158 64t179 -37q42 62 102 100t144 38q46 0 87 -22t71 -55t48 -74t18 -79q10 -48 -11 -107t-60 -119t-91 -119t-106 -110t-103 -90t-83 -59q-16 -48 -12 -104t23 -102t52 -75t78 -21t99 59t116 163q52 0 82 -12t45 -27t19 -31 t4 -24q0 -32 -45 -78t-107 -89t-124 -73t-98 -30q-56 0 -99 16t-76 44t-57 64t-40 78v-50q-46 -56 -100 -90t-124 -30q-72 6 -123 38t-86 81t-53 112t-22 129zM262 503q-12 -95 7 -187t77 -166q58 -10 106 38t88 130q-34 -4 -74 3t-70 26t-43 50t11 75q8 0 36 3t58 10t56 18 t30 29q12 42 23 94t23 110t28 118t38 118q-70 10 -135 -26t-119 -103t-91 -156t-49 -184zM738 626q24 14 58 45t71 73t71 88t56 88t28 77t-14 53q-42 26 -77 10t-65 -56t-53 -97t-39 -113t-25 -102t-11 -66z" />
<glyph unicode="&#xe7;" d="M66 626q2 72 16 164t49 173t96 134t159 49q48 2 89 -8t72 -33t48 -57t15 -76q0 -8 -9 -18t-22 -20t-26 -16t-21 -4q-18 6 -31 19t-25 27t-27 25t-35 11q-32 0 -56 -24t-43 -63t-32 -86t-21 -93t-13 -85t-5 -59q-2 -46 -2 -116t13 -136t48 -114t101 -50q50 -2 86 17t63 48 t47 63t39 63t39 48t46 19q88 -2 110 -96q-20 -58 -62 -117t-97 -107t-120 -77t-131 -27q-116 6 -188 70t-111 157t-51 199t-8 196zM210 -342q-4 22 12 42t40 28t50 -1t44 -43q-8 -46 1 -73t27 -34t42 10t46 63q30 62 28 92t-33 45t-87 25t-134 34l-2 194q0 24 17 43t40 24 t46 -12t33 -67l-14 -80q114 -10 178 -42t84 -86t0 -130t-74 -172q-20 -36 -66 -66t-100 -26t-103 55t-75 177z" />
<glyph unicode="&#xe8;" horiz-adv-x="908" d="M-9 435q-15 33 9 79q8 0 36 3t58 10t56 18t30 29q16 56 31 130t34 154t47 157t70 138t101 98t143 37q46 0 87 -22t71 -55t48 -74t18 -79q10 -48 -11 -107t-60 -119t-91 -119t-106 -110t-103 -90t-83 -59q-16 -48 -12 -104t23 -102t52 -75t78 -21t99 59t116 163 q52 0 82 -12t45 -27t19 -31t4 -24q0 -32 -45 -78t-107 -89t-124 -73t-98 -30q-82 0 -137 33t-91 85t-56 115t-28 121q-32 -8 -76 -3t-79 23t-50 51zM374 668q24 14 58 45t71 73t71 88t56 88t28 77t-14 53q-42 26 -77 10t-65 -56t-53 -97t-39 -113t-25 -102t-11 -66z M411 1544q3 28 25 44t52 15t52 -27l156 -144q6 -30 0 -53t-23 -34t-40 -9t-49 22l-144 126q-32 32 -29 60z" />
<glyph unicode="&#xe9;" horiz-adv-x="908" d="M-9 435q-15 33 9 79q8 0 36 3t58 10t56 18t30 29q16 56 31 130t34 154t47 157t70 138t101 98t143 37q46 0 87 -22t71 -55t48 -74t18 -79q10 -48 -11 -107t-60 -119t-91 -119t-106 -110t-103 -90t-83 -59q-16 -48 -12 -104t23 -102t52 -75t78 -21t99 59t116 163 q52 0 82 -12t45 -27t19 -31t4 -24q0 -32 -45 -78t-107 -89t-124 -73t-98 -30q-82 0 -137 33t-91 85t-56 115t-28 121q-32 -8 -76 -3t-79 23t-50 51zM374 668q24 14 58 45t71 73t71 88t56 88t28 77t-14 53q-42 26 -77 10t-65 -56t-53 -97t-39 -113t-25 -102t-11 -66z M382 1403q-6 23 0 53l156 144q22 26 52 27t52 -15t25 -44t-29 -60l-144 -126q-26 -20 -49 -22t-40 9t-23 34z" />
<glyph unicode="&#xea;" horiz-adv-x="908" d="M-9 435q-15 33 9 79q8 0 36 3t58 10t56 18t30 29q16 56 31 130t34 154t47 157t70 138t101 98t143 37q46 0 87 -22t71 -55t48 -74t18 -79q10 -48 -11 -107t-60 -119t-91 -119t-106 -110t-103 -90t-83 -59q-16 -48 -12 -104t23 -102t52 -75t78 -21t99 59t116 163 q52 0 82 -12t45 -27t19 -31t4 -24q0 -32 -45 -78t-107 -89t-124 -73t-98 -30q-82 0 -137 33t-91 85t-56 115t-28 121q-32 -8 -76 -3t-79 23t-50 51zM346 1470v8l138 262q18 34 46 49t60 12t64 -25t58 -62l112 -234q-6 -36 -27 -55t-48 -22t-52 8t-37 39l-66 140l-98 -188 q-12 -20 -35 -19t-47 13t-44 32t-24 42zM374 668q24 14 58 45t71 73t71 88t56 88t28 77t-14 53q-42 26 -77 10t-65 -56t-53 -97t-39 -113t-25 -102t-11 -66z" />
<glyph unicode="&#xeb;" horiz-adv-x="908" d="M-9 435q-15 33 9 79q8 0 36 3t58 10t56 18t30 29q16 56 31 130t34 154t47 157t70 138t101 98t143 37q46 0 87 -22t71 -55t48 -74t18 -79q10 -48 -11 -107t-60 -119t-91 -119t-106 -110t-103 -90t-83 -59q-16 -48 -12 -104t23 -102t52 -75t78 -21t99 59t116 163 q52 0 82 -12t45 -27t19 -31t4 -24q0 -32 -45 -78t-107 -89t-124 -73t-98 -30q-82 0 -137 33t-91 85t-56 115t-28 121q-32 -8 -76 -3t-79 23t-50 51zM254 1610q20 28 61 41t83 7t73 -32t31 -76q-10 -70 -57 -97t-96 -16t-82 56t-13 117zM374 668q24 14 58 45t71 73t71 88 t56 88t28 77t-14 53q-42 26 -77 10t-65 -56t-53 -97t-39 -113t-25 -102t-11 -66zM616 1610q20 28 61 41t83 7t73 -32t31 -76q-10 -70 -57 -97t-96 -16t-82 56t-13 117z" />
<glyph unicode="&#xec;" horiz-adv-x="420" d="M107 1422q3 28 25 44t52 15t52 -27l156 -144q6 -30 0 -53t-23 -34t-40 -9t-49 22l-144 126q-32 32 -29 60zM126 1050q14 36 42 47t57 2t56 -34t41 -59q16 -224 25 -450t19 -450q0 -38 -24 -71t-66 -33q-28 0 -50 13t-37 34t-24 46t-9 49q22 228 12 455t-42 451z" />
<glyph unicode="&#xed;" horiz-adv-x="420" d="M70 1257q-6 23 0 53l156 144q22 26 52 27t52 -15t25 -44t-29 -60l-144 -126q-26 -20 -49 -22t-40 9t-23 34zM126 1050q14 36 42 47t57 2t56 -34t41 -59q16 -224 25 -450t19 -450q0 -38 -24 -71t-66 -33q-28 0 -50 13t-37 34t-24 46t-9 49q22 228 12 455t-42 451z" />
<glyph unicode="&#xee;" horiz-adv-x="420" d="M-6 1324v8l138 262q18 34 46 49t60 12t64 -25t58 -62l112 -234q-6 -36 -27 -55t-48 -22t-52 8t-37 39l-66 140l-98 -188q-12 -20 -35 -19t-47 13t-44 32t-24 42zM126 1050q14 36 42 47t57 2t56 -34t41 -59q16 -224 25 -450t19 -450q0 -38 -24 -71t-66 -33q-28 0 -50 13 t-37 34t-24 46t-9 49q22 228 12 455t-42 451z" />
<glyph unicode="&#xef;" horiz-adv-x="420" d="M-46 1412q20 28 61 41t83 7t73 -32t31 -76q-10 -70 -57 -97t-96 -16t-82 56t-13 117zM126 1050q14 36 42 47t57 2t56 -34t41 -59q16 -224 25 -450t19 -450q0 -38 -24 -71t-66 -33q-28 0 -50 13t-37 34t-24 46t-9 49q22 228 12 455t-42 451zM316 1412q20 28 61 41t83 7 t73 -32t31 -76q-10 -70 -57 -97t-96 -16t-82 56t-13 117z" />
<glyph unicode="&#xf1;" horiz-adv-x="1040" d="M56 1116q26 48 52 60t47 7t37 -19t26 -20q2 -12 2 -38t-1 -54t-2 -54t1 -38q32 78 87 134t122 88t143 39t152 -15q92 -52 147 -121t83 -155t36 -188t8 -217t-2 -242t6 -263q-18 -24 -45 -35t-53 -8t-48 21t-34 52q2 44 9 132t10 195t-3 220t-27 209t-62 164t-109 82 q-100 -2 -163 -39t-101 -98t-53 -140t-17 -166t4 -174t12 -164t7 -139t-11 -98q-22 -24 -50 -34t-52 -6t-39 18t-15 38zM126 1378q20 38 47 78t63 73t79 54t95 21t87 -25t63 -56t53 -56t55 -25q40 0 62 15t38 39t32 52t44 56q-2 20 20 25t47 -4t42 -29t9 -50q2 -12 -9 -42 t-37 -66t-68 -71t-98 -57q-58 -18 -109 -2t-95 46t-80 60t-64 40q-46 2 -69 -17t-39 -45t-30 -51t-38 -33q-36 0 -66 15t-34 55z" />
<glyph unicode="&#xf2;" horiz-adv-x="1000" d="M102 638q4 94 33 190t84 176t137 136t192 70q80 16 154 -13t130 -100t87 -183t29 -258q2 -118 -23 -226t-76 -195t-129 -145t-180 -78q-86 -20 -152 0t-115 68t-83 116t-54 144t-28 153t-6 145zM266 598q0 -46 11 -125t39 -154t74 -126t116 -43q86 14 142 63t90 122 t48 164t14 191q-4 40 -8 98t-22 112t-60 95t-124 51q-106 0 -169 -44t-97 -111t-44 -146t-10 -147zM405 1500q3 28 25 44t52 15t52 -27l156 -144q6 -30 0 -53t-23 -34t-40 -9t-49 22l-144 126q-32 32 -29 60z" />
<glyph unicode="&#xf3;" horiz-adv-x="1000" d="M102 638q4 94 33 190t84 176t137 136t192 70q80 16 154 -13t130 -100t87 -183t29 -258q2 -118 -23 -226t-76 -195t-129 -145t-180 -78q-86 -20 -152 0t-115 68t-83 116t-54 144t-28 153t-6 145zM266 598q0 -46 11 -125t39 -154t74 -126t116 -43q86 14 142 63t90 122 t48 164t14 191q-4 40 -8 98t-22 112t-60 95t-124 51q-106 0 -169 -44t-97 -111t-44 -146t-10 -147zM444 1317q-6 23 0 53l156 144q22 26 52 27t52 -15t25 -44t-29 -60l-144 -126q-26 -20 -49 -22t-40 9t-23 34z" />
<glyph unicode="&#xf4;" horiz-adv-x="1000" d="M102 638q4 94 33 190t84 176t137 136t192 70q80 16 154 -13t130 -100t87 -183t29 -258q2 -118 -23 -226t-76 -195t-129 -145t-180 -78q-86 -20 -152 0t-115 68t-83 116t-54 144t-28 153t-6 145zM266 598q0 -46 11 -125t39 -154t74 -126t116 -43q86 14 142 63t90 122 t48 164t14 191q-4 40 -8 98t-22 112t-60 95t-124 51q-106 0 -169 -44t-97 -111t-44 -146t-10 -147zM280 1324v8l138 262q18 34 46 49t60 12t64 -25t58 -62l112 -234q-6 -36 -27 -55t-48 -22t-52 8t-37 39l-66 140l-98 -188q-12 -20 -35 -19t-47 13t-44 32t-24 42z" />
<glyph unicode="&#xf5;" horiz-adv-x="1000" d="M90 1310q20 38 47 78t63 73t79 54t95 21t87 -25t63 -56t53 -56t55 -25q40 0 62 15t38 39t32 52t44 56q-2 20 20 25t47 -4t42 -29t9 -50q2 -12 -9 -42t-37 -66t-68 -71t-98 -57q-58 -18 -109 -2t-95 46t-80 60t-64 40q-46 2 -69 -17t-39 -45t-30 -51t-38 -33q-36 0 -66 15 t-34 55zM102 638q4 94 33 190t84 176t137 136t192 70q80 16 154 -13t130 -100t87 -183t29 -258q2 -118 -23 -226t-76 -195t-129 -145t-180 -78q-86 -20 -152 0t-115 68t-83 116t-54 144t-28 153t-6 145zM266 598q0 -46 11 -125t39 -154t74 -126t116 -43q86 14 142 63t90 122 t48 164t14 191q-4 40 -8 98t-22 112t-60 95t-124 51q-106 0 -169 -44t-97 -111t-44 -146t-10 -147z" />
<glyph unicode="&#xf6;" horiz-adv-x="1000" d="M102 638q4 94 33 190t84 176t137 136t192 70q80 16 154 -13t130 -100t87 -183t29 -258q2 -118 -23 -226t-76 -195t-129 -145t-180 -78q-86 -20 -152 0t-115 68t-83 116t-54 144t-28 153t-6 145zM266 598q0 -46 11 -125t39 -154t74 -126t116 -43q86 14 142 63t90 122 t48 164t14 191q-4 40 -8 98t-22 112t-60 95t-124 51q-106 0 -169 -44t-97 -111t-44 -146t-10 -147zM274 1482q20 28 61 41t83 7t73 -32t31 -76q-10 -70 -57 -97t-96 -16t-82 56t-13 117zM636 1482q20 28 61 41t83 7t73 -32t31 -76q-10 -70 -57 -97t-96 -16t-82 56t-13 117z " />
<glyph unicode="&#xf8;" horiz-adv-x="1000" d="M26 41q0 2 2 6.5t13 20.5t34 48.5t65 90t106 144t155.5 211t216 292t287.5 386.5q4 13 26 14.5t47 -7.5t45.5 -26t20.5 -41l-907 -1218q-17 0 -35.5 8t-35 20t-27.5 26t-13 25zM102 638q4 94 33 190t84 176t137 136t192 70q80 16 154 -13t130 -100t87 -183t29 -258 q2 -118 -23 -226t-76 -195t-129 -145t-180 -78q-86 -20 -152 0t-115 68t-83 116t-54 144t-28 153t-6 145zM266 598q0 -46 11 -125t39 -154t74 -126t116 -43q86 14 142 63t90 122t48 164t14 191q-4 40 -8 98t-22 112t-60 95t-124 51q-106 0 -169 -44t-97 -111t-44 -146 t-10 -147z" />
<glyph unicode="&#xf9;" horiz-adv-x="948" d="M82 1104q20 46 42 63t43 15t42 -19t37 -39q-2 -202 9 -344t32 -239t49 -156t63 -93t72 -51t77 -29q76 10 118 56t62 117t23 161t2 187t-1 196t12 187q6 38 29 58t48 19t46 -24t23 -71q4 -98 7 -217t-3 -241t-26 -236t-63 -202t-114 -143t-177 -55q-118 6 -200 80 t-135 213t-81 342t-36 465zM371 1422q3 28 25 44t52 15t52 -27l156 -144q6 -30 0 -53t-23 -34t-40 -9t-49 22l-144 126q-32 32 -29 60z" />
<glyph unicode="&#xfa;" horiz-adv-x="948" d="M82 1104q20 46 42 63t43 15t42 -19t37 -39q-2 -202 9 -344t32 -239t49 -156t63 -93t72 -51t77 -29q76 10 118 56t62 117t23 161t2 187t-1 196t12 187q6 38 29 58t48 19t46 -24t23 -71q4 -98 7 -217t-3 -241t-26 -236t-63 -202t-114 -143t-177 -55q-118 6 -200 80 t-135 213t-81 342t-36 465zM332 1257q-6 23 0 53l156 144q22 26 52 27t52 -15t25 -44t-29 -60l-144 -126q-26 -20 -49 -22t-40 9t-23 34z" />
<glyph unicode="&#xfb;" horiz-adv-x="948" d="M82 1104q20 46 42 63t43 15t42 -19t37 -39q-2 -202 9 -344t32 -239t49 -156t63 -93t72 -51t77 -29q76 10 118 56t62 117t23 161t2 187t-1 196t12 187q6 38 29 58t48 19t46 -24t23 -71q4 -98 7 -217t-3 -241t-26 -236t-63 -202t-114 -143t-177 -55q-118 6 -200 80 t-135 213t-81 342t-36 465zM254 1324v8l138 262q18 34 46 49t60 12t64 -25t58 -62l112 -234q-6 -36 -27 -55t-48 -22t-52 8t-37 39l-66 140l-98 -188q-12 -20 -35 -19t-47 13t-44 32t-24 42z" />
<glyph unicode="&#xfc;" horiz-adv-x="948" d="M82 1104q20 46 42 63t43 15t42 -19t37 -39q-2 -202 9 -344t32 -239t49 -156t63 -93t72 -51t77 -29q76 10 118 56t62 117t23 161t2 187t-1 196t12 187q6 38 29 58t48 19t46 -24t23 -71q4 -98 7 -217t-3 -241t-26 -236t-63 -202t-114 -143t-177 -55q-118 6 -200 80 t-135 213t-81 342t-36 465zM214 1412q20 28 61 41t83 7t73 -32t31 -76q-10 -70 -57 -97t-96 -16t-82 56t-13 117zM576 1412q20 28 61 41t83 7t73 -32t31 -76q-10 -70 -57 -97t-96 -16t-82 56t-13 117z" />
<glyph unicode="&#xfd;" horiz-adv-x="924" d="M58 1104q20 30 54 32t69 -21t45 -61q42 -54 91 -138t102 -173t108 -168t107 -123q12 26 23 82t19 129t15 154t12 156t11 137t12 94q10 8 36 11t54 -9t50 -44t26 -92l-228 -1608q-8 -46 -40 -61t-67 -12t-62 20t-25 39l134 808q-10 2 -22 10t-33 34t-57 74t-93 130 t-140 205t-199 299q-22 66 -2 96zM320 1257q-6 23 0 53l156 144q22 26 52 27t52 -15t25 -44t-29 -60l-144 -126q-26 -20 -49 -22t-40 9t-23 34z" />
<glyph unicode="&#xfe;" horiz-adv-x="914" d="M94 1968q0 26 24 34t53 2t55 -22t32 -38l14 -604q98 142 188 192t164 31t129 -95t84 -182t29 -231t-36 -245q-36 -96 -87 -162t-114 -107t-140 -58t-167 -17l18 -374q0 -36 -27 -53t-60 -15t-62 23t-31 61q0 152 -3 323t-9 390t-19 498t-35 649zM327 874q-3 -78 3 -134 t16 -66q116 -24 193 19t120 120t57 174t2 182t-45 143t-81 58q-72 0 -122 -48t-81 -122t-45 -161t-17 -165z" />
<glyph unicode="&#xff;" horiz-adv-x="924" d="M58 1104q20 30 54 32t69 -21t45 -61q42 -54 91 -138t102 -173t108 -168t107 -123q12 26 23 82t19 129t15 154t12 156t11 137t12 94q10 8 36 11t54 -9t50 -44t26 -92l-228 -1608q-8 -46 -40 -61t-67 -12t-62 20t-25 39l134 808q-10 2 -22 10t-33 34t-57 74t-93 130 t-140 205t-199 299q-22 66 -2 96zM202 1412q20 28 61 41t83 7t73 -32t31 -76q-10 -70 -57 -97t-96 -16t-82 56t-13 117zM564 1412q20 28 61 41t83 7t73 -32t31 -76q-10 -70 -57 -97t-96 -16t-82 56t-13 117z" />
<glyph unicode="&#x152;" horiz-adv-x="1316" d="M106 1042v219t17 258t57 246t118 183q28 26 79 30t103 -16q30 2 82 2h133t195 -1t266 -1q26 0 38 -22t11 -49t-13 -51t-36 -28q-52 -2 -119 -5t-137 -6t-139 -5t-123 0q0 -44 -3 -130t-3 -178t7 -174t25 -120q8 -2 45 -5t79 -6t79 -6t45 -5q26 -10 41 -29t18 -39t-8 -35 t-37 -17q-18 0 -56 -3t-81 -6t-83 -4t-58 5q-16 -94 -21 -192t-4 -202t5 -216t4 -234l566 -12q10 -4 21 -20t16 -36t-3 -39t-34 -29q-10 -10 -55 -19t-110 -14t-143 -8t-155 -5t-144 -1t-111 3q-82 30 -141 99t-101 161t-68 198t-40 209t-19 196t-5 159zM258 1163 q4 -147 18 -283t34 -247t38 -169q10 -50 35 -113t65 -111q12 120 13 297t-3 386t-12 437t-16 450q-70 -40 -108 -140t-53 -230t-11 -277z" />
<glyph unicode="&#x153;" horiz-adv-x="1248" d="M102 638q4 94 33 190t84 176t137 136t192 70h35t60 -1t65 -3t54 -2q62 40 148 40q46 0 87 -22t71 -55t48 -74t18 -79q10 -48 -11 -107t-60 -119t-91 -119t-106 -110t-103 -90t-83 -59q-16 -48 -12 -104t23 -102t52 -75t78 -21t99 59t116 163q52 0 82 -12t45 -27t19 -31 t4 -24q0 -32 -45 -78t-107 -89t-124 -73t-98 -30q-62 0 -108 19t-80 51q-22 -10 -42 -15t-42 -9q-86 -20 -152 0t-115 68t-83 116t-54 144t-28 153t-6 145zM266 598q0 -46 11 -125t39 -154t74 -126t116 -43q10 2 19 3t19 3q-18 40 -28 82t-16 82q-32 -8 -59 -1t-42 29 t-13 57t26 81q8 0 19 1t21 5t19 12t13 26q14 48 26 111t28 131t36 137t50 129q-10 2 -19 4t-19 4q-106 0 -169 -44t-97 -111t-44 -146t-10 -147zM678 624q24 14 58 45t71 73t71 88t56 88t28 77t-14 53q-42 26 -77 10t-65 -56t-53 -97t-39 -113t-25 -102t-11 -66z" />
<glyph unicode="&#x178;" horiz-adv-x="1006" d="M59 1909q11 25 37 35t59 0t63 -46q16 -18 53 -59t85 -94t101 -113t100 -112t83 -91t50 -51l126 562q26 42 57 52t56 0t40 -34t9 -48l-432 -1876q-8 -20 -32 -28t-50 -4t-47 19t-21 43l248 1120l-580 668q-16 32 -5 57zM244 2186q20 28 61 41t83 7t73 -32t31 -76 q-10 -70 -57 -97t-96 -16t-82 56t-13 117zM606 2186q20 28 61 41t83 7t73 -32t31 -76q-10 -70 -57 -97t-96 -16t-82 56t-13 117z" />
<glyph unicode="&#x2c6;" horiz-adv-x="610" d="M92 1324v8l138 262q18 34 46 49t60 12t64 -25t58 -62l112 -234q-6 -36 -27 -55t-48 -22t-52 8t-37 39l-66 140l-98 -188q-12 -20 -35 -19t-47 13t-44 32t-24 42z" />
<glyph unicode="&#x2dc;" horiz-adv-x="960" d="M78 1310q20 38 47 78t63 73t79 54t95 21t87 -25t63 -56t53 -56t55 -25q40 0 62 15t38 39t32 52t44 56q-2 20 20 25t47 -4t42 -29t9 -50q2 -12 -9 -42t-37 -66t-68 -71t-98 -57q-58 -18 -109 -2t-95 46t-80 60t-64 40q-46 2 -69 -17t-39 -45t-30 -51t-38 -33q-36 0 -66 15 t-34 55z" />
<glyph unicode="&#x2000;" horiz-adv-x="1266" />
<glyph unicode="&#x2001;" horiz-adv-x="2533" />
<glyph unicode="&#x2002;" horiz-adv-x="1266" />
<glyph unicode="&#x2003;" horiz-adv-x="2533" />
<glyph unicode="&#x2004;" horiz-adv-x="844" />
<glyph unicode="&#x2005;" horiz-adv-x="633" />
<glyph unicode="&#x2006;" horiz-adv-x="422" />
<glyph unicode="&#x2007;" horiz-adv-x="422" />
<glyph unicode="&#x2008;" horiz-adv-x="316" />
<glyph unicode="&#x2009;" horiz-adv-x="506" />
<glyph unicode="&#x200a;" horiz-adv-x="140" />
<glyph unicode="&#x2010;" d="M130 622q0 34 46 66q26 -4 94 -8t145 -4t149 3t108 11q38 12 75 -8t57 -53t13 -68t-57 -53h-464q-36 -6 -76 9t-65 43t-25 62z" />
<glyph unicode="&#x2011;" d="M130 622q0 34 46 66q26 -4 94 -8t145 -4t149 3t108 11q38 12 75 -8t57 -53t13 -68t-57 -53h-464q-36 -6 -76 9t-65 43t-25 62z" />
<glyph unicode="&#x2012;" d="M130 622q0 34 46 66q26 -4 94 -8t145 -4t149 3t108 11q38 12 75 -8t57 -53t13 -68t-57 -53h-464q-36 -6 -76 9t-65 43t-25 62z" />
<glyph unicode="&#x2013;" d="M130 622q0 34 46 66q26 -4 94 -8t145 -4t149 3t108 11q38 12 75 -8t57 -53t13 -68t-57 -53h-464q-36 -6 -76 9t-65 43t-25 62z" />
<glyph unicode="&#x2014;" horiz-adv-x="2215" d="M130 622q0 34 137 66q77 -4 279 -8t431 -4t443 3t321 11q113 12 223 -8t169.5 -53t39 -68t-169.5 -53h-1379q-107 -6 -226 9t-193.5 43t-74.5 62z" />
<glyph unicode="&#x2018;" horiz-adv-x="362" d="M124 1464q0 42 25 54t65 12q50 0 60 -23t14 -69q12 -88 19 -176t13 -178q0 -42 -19 -60t-45 -18t-54 16t-48 42q-10 94 -17 190t-13 210z" />
<glyph unicode="&#x2019;" horiz-adv-x="362" d="M124 1084q6 90 13 178t19 176q4 46 14 69t60 23q40 0 65 -12t25 -54q-6 -114 -13 -210t-17 -190q-20 -26 -48 -42t-54 -16t-45 18t-19 60z" />
<glyph unicode="&#x201a;" horiz-adv-x="512" d="M186 382q0 42 25 54t65 12q50 0 60 -23t14 -69q12 -88 19 -176t13 -178q0 -42 -19 -60t-45 -18t-54 16t-48 42q-10 94 -17 190t-13 210z" />
<glyph unicode="&#x201c;" horiz-adv-x="678" d="M108 1668v8q0 30 18 41t42 11t49 -9t41 -21q16 -90 23 -187t7 -233q-66 -16 -97 -9t-45 50t-20 127t-18 222zM384 1666v8q0 30 18 41t42 11t49 -9t41 -21q16 -90 23 -187t7 -233q-66 -16 -97 -9t-45 50t-20 127t-18 222z" />
<glyph unicode="&#x201d;" horiz-adv-x="678" d="M108 1276q0 136 7 233t23 187q14 12 40 21t50 9t42 -11t18 -41v-8q-12 -138 -18 -222t-20 -127t-45 -50t-97 9zM384 1278q0 136 7 233t23 187q14 12 40 21t50 9t42 -11t18 -41v-8q-12 -138 -18 -222t-20 -127t-45 -50t-97 9z" />
<glyph unicode="&#x201e;" horiz-adv-x="678" d="M138 374v8q0 30 18 41t42 11t49 -9t41 -21q16 -90 23 -187t7 -233q-66 -16 -97 -9t-45 50t-20 127t-18 222zM414 372v8q0 30 18 41t42 11t49 -9t41 -21q16 -90 23 -187t7 -233q-66 -16 -97 -9t-45 50t-20 127t-18 222z" />
<glyph unicode="&#x2026;" horiz-adv-x="1186" d="M108 188q20 28 61 41t83 7t73 -32t31 -76q-10 -70 -57 -97t-96 -16t-82 56t-13 117zM490 188q20 28 61 41t83 7t73 -32t31 -76q-10 -70 -57 -97t-96 -16t-82 56t-13 117zM872 188q20 28 61 41t83 7t73 -32t31 -76q-10 -70 -57 -97t-96 -16t-82 56t-13 117z" />
<glyph unicode="&#x202f;" horiz-adv-x="506" />
<glyph unicode="&#x205f;" horiz-adv-x="633" />
<glyph unicode="&#x20ac;" horiz-adv-x="1220" d="M60 1206q-8 22 1 52t47 66l258 34q16 122 62 234t110 197t141 134t156 46t156 -67t139 -206q0 -48 -19 -72t-43 -28t-45 9t-25 37q-32 86 -79 121t-98 30t-102 -43t-92 -97t-67 -134t-26 -151l300 24q36 -18 51 -45t11 -54t-24 -50t-52 -35l-308 -12l-12 -184q10 0 37 1 t58 3t58 3t37 1q42 -4 73 -28t31 -92q-8 -44 -46 -56t-86 -11t-94 4t-68 -9q0 -170 32 -297t82 -206t112 -108t123 -6t113 100t84 213q26 24 57 28t54 -14t32 -58t-11 -106q-64 -176 -155 -265t-189 -103t-195 39t-171 160t-117 262t-35 343q-34 2 -76 -2t-79 1t-60 24 t-17 69q0 48 29 69t68 28t80 7t63 6l8 154q0 2 -32 -3t-71 -11t-71 -11t-32 -3q-20 12 -39 29t-27 39z" />
<glyph unicode="&#x25fc;" horiz-adv-x="1230" d="M0 0v1230h1230v-1230h-1230z" />
</font>
</defs>
</svg>
